<svg xmlns="http://www.w3.org/2000/svg" width="296.775" height="109.523" viewBox="0 0 296.775 109.523">
  <g id="logo" transform="translate(0.106 -14.163)">
    <g id="electrocardiogramme" transform="translate(-0.106 22.045)">
      <path id="Tracé_2103" data-name="Tracé 2103" d="M108.45,118.544a3.417,3.417,0,0,1-3.427-3.025L93.989,27.286,75.917,54.051a3.456,3.456,0,0,1-5.688.056l-18.935-26.9-8,69.144a3.455,3.455,0,0,1-6.752.555L26.322,61.263l-4.7,22.488a3.455,3.455,0,0,1-6.241,1.23L3.21,67.016H-.106V62.759H3.636a3.453,3.453,0,0,1,2.858,1.515L17.842,81.026,22.82,57.218a3.454,3.454,0,0,1,6.7-.245l10,34.9,7.782-67.245a3.454,3.454,0,0,1,6.256-1.591L73.039,50.7,91.657,23.133a3.454,3.454,0,0,1,6.29,1.5l10.484,83.835L113.356,67.2a3.454,3.454,0,0,1,3.43-3.046H296.669v4.257H117.5l-5.617,47.09a3.416,3.416,0,0,1-3.42,3.046Zm8.343-50.136h0Z" transform="translate(0.106 -21.569)" fill="#008d36"/>
    </g>
    <g id="base_line" data-name="base line" transform="translate(126.231 76.808)">
      <g id="Groupe_1620" data-name="Groupe 1620">
        <path id="Tracé_2104" data-name="Tracé 2104" d="M118.612,90.658V73.03h2.706a2.139,2.139,0,0,1,1.569.577,3.457,3.457,0,0,1,.855,1.665,11.087,11.087,0,0,1,.269,2.633,8.55,8.55,0,0,1-.3,2.416,3.452,3.452,0,0,1-.894,1.577,2.085,2.085,0,0,1-1.481.556h-1.2v8.2Zm1.522-9.967h.7a1.938,1.938,0,0,0,1.037-.239,1.36,1.36,0,0,0,.538-.839,6.821,6.821,0,0,0,.161-1.687,12.337,12.337,0,0,0-.114-1.936,1.378,1.378,0,0,0-.479-.936,1.955,1.955,0,0,0-1.13-.261h-.713Z" transform="translate(-118.612 -73.03)" fill="#1d1d1b"/>
        <path id="Tracé_2105" data-name="Tracé 2105" d="M124.608,90.363V77.783h1.441v1.785a4.131,4.131,0,0,1,.861-1.545,1.3,1.3,0,0,1,.862-.392h.1a.626.626,0,0,1,.128.021V80.22a1.768,1.768,0,0,0-.37-.184,1.245,1.245,0,0,0-.424-.077.886.886,0,0,0-.612.251,2.572,2.572,0,0,0-.546.968v9.184Z" transform="translate(-118.227 -72.735)" fill="#1d1d1b"/>
        <path id="Tracé_2106" data-name="Tracé 2106" d="M130.78,90.539a1.724,1.724,0,0,1-1.361-.566,3.427,3.427,0,0,1-.707-1.611,12.672,12.672,0,0,1-.208-2.459V82.247a12.688,12.688,0,0,1,.208-2.459,3.422,3.422,0,0,1,.707-1.61,1.721,1.721,0,0,1,1.361-.566,1.7,1.7,0,0,1,1.352.566,3.442,3.442,0,0,1,.7,1.61,12.676,12.676,0,0,1,.21,2.459V85.9a12.66,12.66,0,0,1-.21,2.459,3.446,3.446,0,0,1-.7,1.611A1.7,1.7,0,0,1,130.78,90.539Zm0-1.72a.591.591,0,0,0,.584-.393,3.047,3.047,0,0,0,.2-1.032q.034-.643.034-1.339v-3.94q0-.717-.034-1.349a3.14,3.14,0,0,0-.2-1.034.593.593,0,0,0-.584-.4.605.605,0,0,0-.593.4,3,3,0,0,0-.209,1.034q-.035.632-.034,1.349v3.94q0,.7.034,1.339a2.911,2.911,0,0,0,.209,1.032A.6.6,0,0,0,130.78,88.819Z" transform="translate(-117.977 -72.736)" fill="#1d1d1b"/>
        <path id="Tracé_2107" data-name="Tracé 2107" d="M136.143,90.539a1.736,1.736,0,0,1-1.447-.62,3.667,3.667,0,0,1-.66-1.753,18.179,18.179,0,0,1-.168-2.633V82.638a17.991,17.991,0,0,1,.175-2.709,3.559,3.559,0,0,1,.666-1.72,1.751,1.751,0,0,1,1.435-.6,1.82,1.82,0,0,1,1.312.446,2.459,2.459,0,0,1,.64,1.327,11.557,11.557,0,0,1,.175,2.188v.74h-1.306v-.761a9.933,9.933,0,0,0-.067-1.307,1.439,1.439,0,0,0-.243-.7.6.6,0,0,0-.5-.217.623.623,0,0,0-.538.261,1.874,1.874,0,0,0-.25.881q-.061.619-.06,1.687v3.96a7.912,7.912,0,0,0,.187,2.156.69.69,0,0,0,.674.544.576.576,0,0,0,.531-.272,1.8,1.8,0,0,0,.216-.773c.032-.333.047-.711.047-1.131V85.62h1.306v.869a11.307,11.307,0,0,1-.182,2.177,2.711,2.711,0,0,1-.645,1.393A1.732,1.732,0,0,1,136.143,90.539Z" transform="translate(-117.633 -72.736)" fill="#1d1d1b"/>
        <path id="Tracé_2108" data-name="Tracé 2108" d="M139.244,90.658V73.03h1.441v6.355a5.065,5.065,0,0,1,.874-1.045,1.576,1.576,0,0,1,1.078-.435.787.787,0,0,1,.706.392,2.685,2.685,0,0,1,.351.979,7.213,7.213,0,0,1,.1,1.2V90.658h-1.44V81.148a3.5,3.5,0,0,0-.121-1.044.484.484,0,0,0-.5-.37.825.825,0,0,0-.532.239,3.156,3.156,0,0,0-.517.586v10.1Z" transform="translate(-117.288 -73.03)" fill="#1d1d1b"/>
        <path id="Tracé_2109" data-name="Tracé 2109" d="M147,90.539a1.768,1.768,0,0,1-1.413-.577,3.486,3.486,0,0,1-.693-1.7,16.413,16.413,0,0,1-.2-2.753V82.638a16.02,16.02,0,0,1,.2-2.786,3.386,3.386,0,0,1,.707-1.675A1.77,1.77,0,0,1,147,77.611a1.652,1.652,0,0,1,1.447.653,4.1,4.1,0,0,1,.613,1.881,25.108,25.108,0,0,1,.148,2.95v1.023h-3.069v2.524a7.13,7.13,0,0,0,.087,1.241,1.511,1.511,0,0,0,.282.707.636.636,0,0,0,.505.229.555.555,0,0,0,.492-.251,1.682,1.682,0,0,0,.229-.718,8.671,8.671,0,0,0,.06-1.1v-.762h1.4v.48a7.29,7.29,0,0,1-.5,2.98A1.731,1.731,0,0,1,147,90.539Zm-.861-7.683h1.655V81.724q0-.784-.053-1.317a1.941,1.941,0,0,0-.221-.8.582.582,0,0,0-.532-.271.608.608,0,0,0-.532.261,1.982,1.982,0,0,0-.249.881,16.511,16.511,0,0,0-.067,1.708Z" transform="translate(-116.938 -72.736)" fill="#1d1d1b"/>
        <path id="Tracé_2110" data-name="Tracé 2110" d="M154.869,90.833a1.581,1.581,0,0,1-1.467-1.165,11.3,11.3,0,0,1-.484-3.95V83.28a22.329,22.329,0,0,1,.148-2.666,5.385,5.385,0,0,1,.559-1.969,1.306,1.306,0,0,1,1.2-.741,1.06,1.06,0,0,1,.714.283,3.044,3.044,0,0,1,.579.7V73.03h1.44V90.658h-1.44v-.806a2.92,2.92,0,0,1-.56.708A1.009,1.009,0,0,1,154.869,90.833ZM155.233,89a.93.93,0,0,0,.43-.119,1.778,1.778,0,0,0,.459-.359V80.277a2.36,2.36,0,0,0-.418-.381.84.84,0,0,0-.5-.163q-.5,0-.673.773a8.518,8.518,0,0,0-.175,1.86v3.548c0,.58.019,1.107.06,1.577a3.323,3.323,0,0,0,.25,1.11A.6.6,0,0,0,155.233,89Z" transform="translate(-116.41 -73.03)" fill="#1d1d1b"/>
        <path id="Tracé_2111" data-name="Tracé 2111" d="M160.81,90.539a1.766,1.766,0,0,1-1.413-.577,3.476,3.476,0,0,1-.694-1.7,16.422,16.422,0,0,1-.195-2.753V82.638a16.033,16.033,0,0,1,.2-2.786,3.4,3.4,0,0,1,.707-1.675,1.772,1.772,0,0,1,1.394-.566,1.651,1.651,0,0,1,1.446.653,4.088,4.088,0,0,1,.613,1.881,25.111,25.111,0,0,1,.148,2.95v1.023h-3.069v2.524a7.237,7.237,0,0,0,.087,1.241,1.511,1.511,0,0,0,.283.707.633.633,0,0,0,.505.229.557.557,0,0,0,.492-.251,1.682,1.682,0,0,0,.228-.718,8.653,8.653,0,0,0,.061-1.1v-.762H163v.48a7.31,7.31,0,0,1-.5,2.98A1.732,1.732,0,0,1,160.81,90.539Zm-.862-7.683H161.6V81.724q0-.784-.054-1.317a1.926,1.926,0,0,0-.221-.8.58.58,0,0,0-.532-.271.608.608,0,0,0-.532.261,2,2,0,0,0-.248.881,16.452,16.452,0,0,0-.068,1.708Z" transform="translate(-116.052 -72.736)" fill="#1d1d1b"/>
        <path id="Tracé_2112" data-name="Tracé 2112" d="M169,90.539a1.735,1.735,0,0,1-1.446-.62,3.646,3.646,0,0,1-.66-1.753,18.018,18.018,0,0,1-.169-2.633V82.638a17.836,17.836,0,0,1,.176-2.709,3.528,3.528,0,0,1,.667-1.72,1.746,1.746,0,0,1,1.432-.6,1.823,1.823,0,0,1,1.313.446,2.451,2.451,0,0,1,.639,1.327,11.46,11.46,0,0,1,.176,2.188v.74h-1.306v-.761a9.9,9.9,0,0,0-.068-1.307,1.451,1.451,0,0,0-.242-.7.6.6,0,0,0-.5-.217.624.624,0,0,0-.538.261,1.875,1.875,0,0,0-.249.881q-.061.619-.061,1.687v3.96a7.9,7.9,0,0,0,.188,2.156.689.689,0,0,0,.674.544.582.582,0,0,0,.532-.272,1.846,1.846,0,0,0,.215-.773c.031-.333.047-.711.047-1.131V85.62h1.306v.869a11.308,11.308,0,0,1-.182,2.177,2.72,2.72,0,0,1-.646,1.393A1.73,1.73,0,0,1,169,90.539Z" transform="translate(-115.524 -72.736)" fill="#1d1d1b"/>
        <path id="Tracé_2113" data-name="Tracé 2113" d="M172.105,90.658V73.03h1.441v6.355a5.1,5.1,0,0,1,.875-1.045A1.573,1.573,0,0,1,175.5,77.9a.788.788,0,0,1,.707.392,2.647,2.647,0,0,1,.35.979,6.993,6.993,0,0,1,.1,1.2V90.658h-1.441V81.148a3.5,3.5,0,0,0-.12-1.044.483.483,0,0,0-.5-.37.822.822,0,0,0-.532.239,3.2,3.2,0,0,0-.518.586v10.1Z" transform="translate(-115.179 -73.03)" fill="#1d1d1b"/>
        <path id="Tracé_2114" data-name="Tracé 2114" d="M179.86,90.539a1.765,1.765,0,0,1-1.413-.577,3.476,3.476,0,0,1-.694-1.7,16.425,16.425,0,0,1-.195-2.753V82.638a16.034,16.034,0,0,1,.2-2.786,3.4,3.4,0,0,1,.707-1.675,1.772,1.772,0,0,1,1.394-.566,1.651,1.651,0,0,1,1.446.653,4.1,4.1,0,0,1,.613,1.881,25.108,25.108,0,0,1,.148,2.95v1.023H179v2.524a7.131,7.131,0,0,0,.087,1.241,1.511,1.511,0,0,0,.283.707.633.633,0,0,0,.5.229.554.554,0,0,0,.492-.251,1.668,1.668,0,0,0,.229-.718,8.654,8.654,0,0,0,.061-1.1v-.762h1.4v.48a7.289,7.289,0,0,1-.5,2.98A1.73,1.73,0,0,1,179.86,90.539ZM179,82.855h1.656V81.724q0-.784-.054-1.317a1.942,1.942,0,0,0-.221-.8.58.58,0,0,0-.532-.271.608.608,0,0,0-.532.261,2,2,0,0,0-.248.881A16.452,16.452,0,0,0,179,82.181Z" transform="translate(-114.829 -72.736)" fill="#1d1d1b"/>
        <path id="Tracé_2115" data-name="Tracé 2115" d="M182.743,90.354V88.786l2.383-9.271h-2.139V77.774h3.687v1.263l-2.4,9.553h2.342v1.763Z" transform="translate(-114.496 -72.726)" fill="#1d1d1b"/>
        <path id="Tracé_2116" data-name="Tracé 2116" d="M192.351,90.658,189.915,73.03h1.427l1.723,12.993,1.642-12.993h1.387l-2.409,17.628Z" transform="translate(-114.036 -73.03)" fill="#134dbf"/>
        <path id="Tracé_2117" data-name="Tracé 2117" d="M198.717,90.539a1.717,1.717,0,0,1-1.359-.566,3.4,3.4,0,0,1-.707-1.611,12.658,12.658,0,0,1-.21-2.459V82.247a12.673,12.673,0,0,1,.21-2.459,3.391,3.391,0,0,1,.707-1.61,1.908,1.908,0,0,1,2.713,0,3.463,3.463,0,0,1,.7,1.61,12.681,12.681,0,0,1,.209,2.459V85.9a12.665,12.665,0,0,1-.209,2.459,3.467,3.467,0,0,1-.7,1.611A1.7,1.7,0,0,1,198.717,90.539Zm0-1.72a.591.591,0,0,0,.585-.393,3.072,3.072,0,0,0,.2-1.032q.034-.643.034-1.339v-3.94q0-.717-.034-1.349a3.167,3.167,0,0,0-.2-1.034.593.593,0,0,0-.585-.4.606.606,0,0,0-.593.4,3.073,3.073,0,0,0-.209,1.034q-.032.632-.033,1.349v3.94q0,.7.033,1.339a2.981,2.981,0,0,0,.209,1.032A.6.6,0,0,0,198.717,88.819Z" transform="translate(-113.617 -72.736)" fill="#134dbf"/>
        <path id="Tracé_2118" data-name="Tracé 2118" d="M203.066,90.528a.808.808,0,0,1-.714-.392,2.6,2.6,0,0,1-.356-.98,7.079,7.079,0,0,1-.1-1.2V77.774h1.44v9.488a3.638,3.638,0,0,0,.12,1.057.487.487,0,0,0,.5.38.785.785,0,0,0,.505-.228,3.477,3.477,0,0,0,.5-.554V77.774H206.4v12.58h-1.441V89.113a4.6,4.6,0,0,1-.855,1A1.562,1.562,0,0,1,203.066,90.528Z" transform="translate(-113.267 -72.726)" fill="#134dbf"/>
        <path id="Tracé_2119" data-name="Tracé 2119" d="M209.337,90.539a1.736,1.736,0,0,1-1.533-.968,5.49,5.49,0,0,1-.66-2.558l1.2-.586a6.233,6.233,0,0,0,.362,1.794.822.822,0,0,0,.755.6.646.646,0,0,0,.593-.359,1.989,1.989,0,0,0,.2-.968,3.029,3.029,0,0,0-.148-.98,3.318,3.318,0,0,0-.484-.892l-1.332-1.851a5.909,5.909,0,0,1-.68-1.262,5.925,5.925,0,0,1-.027-3.493,2.29,2.29,0,0,1,.7-1.045,1.654,1.654,0,0,1,1.057-.359,1.54,1.54,0,0,1,1.421.968,5.753,5.753,0,0,1,.558,2.34l-.968.586a8.841,8.841,0,0,0-.162-1.142,2.15,2.15,0,0,0-.3-.762.582.582,0,0,0-.5-.271.627.627,0,0,0-.56.38,1.86,1.86,0,0,0-.208.9,2.375,2.375,0,0,0,.087.642,2.014,2.014,0,0,0,.3.62l1.373,2.045a8.589,8.589,0,0,1,.532.893,5.175,5.175,0,0,1,.411,1.088,5.518,5.518,0,0,1,.162,1.414,5.137,5.137,0,0,1-.268,1.785,2.309,2.309,0,0,1-.754,1.078A1.849,1.849,0,0,1,209.337,90.539Z" transform="translate(-112.93 -72.736)" fill="#134dbf"/>
        <path id="Tracé_2120" data-name="Tracé 2120" d="M212.292,92.6l-.229-1a1.335,1.335,0,0,0,.574-.686,2.982,2.982,0,0,0,.207-1.163h-.767v-2.5h1.481V89.7a4.534,4.534,0,0,1-.31,1.839A2.253,2.253,0,0,1,212.292,92.6Z" transform="translate(-112.615 -72.118)" fill="#1d1d1b"/>
      </g>
      <g id="Groupe_1621" data-name="Groupe 1621" transform="translate(50.846 25.099)">
        <path id="Tracé_2121" data-name="Tracé 2121" d="M169.227,114.479a2.14,2.14,0,0,1-1.674-.692,4.18,4.18,0,0,1-.893-1.978,14.938,14.938,0,0,1-.268-3.017v-6.64a14.046,14.046,0,0,1,.273-2.973,4,4,0,0,1,.894-1.9,2.178,2.178,0,0,1,1.668-.66,2.138,2.138,0,0,1,1.659.672,4.088,4.088,0,0,1,.888,1.9,13.823,13.823,0,0,1,.275,2.963v6.662a14.335,14.335,0,0,1-.275,2.985,4.356,4.356,0,0,1-.888,1.978A2.087,2.087,0,0,1,169.227,114.479Zm0-1.924a1.007,1.007,0,0,0,.867-.4,2.449,2.449,0,0,0,.4-1.125,12.137,12.137,0,0,0,.1-1.7v-7.677a11.675,11.675,0,0,0-.1-1.676,2.266,2.266,0,0,0-.4-1.081,1.029,1.029,0,0,0-.867-.379,1.048,1.048,0,0,0-.876.379,2.244,2.244,0,0,0-.4,1.081,11.865,11.865,0,0,0-.1,1.676v7.677a12.334,12.334,0,0,0,.1,1.7,2.424,2.424,0,0,0,.4,1.125A1.026,1.026,0,0,0,169.227,112.555Z" transform="translate(-166.392 -96.615)" fill="#1d1d1b"/>
        <path id="Tracé_2122" data-name="Tracé 2122" d="M172.932,113.984v-12.5H174.3v1.232a4.962,4.962,0,0,1,.817-.995,1.423,1.423,0,0,1,.983-.41.755.755,0,0,1,.683.388,2.715,2.715,0,0,1,.332.974,7.322,7.322,0,0,1,.1,1.189v10.122h-1.366v-9.451a3.7,3.7,0,0,0-.114-1.039.464.464,0,0,0-.474-.367.736.736,0,0,0-.479.226,3.463,3.463,0,0,0-.479.552v10.079Z" transform="translate(-165.972 -96.314)" fill="#1d1d1b"/>
        <path id="Tracé_2123" data-name="Tracé 2123" d="M180.947,118.093v-16.61h1.365v1a3.244,3.244,0,0,1,.588-.822,1.114,1.114,0,0,1,.817-.346,1.047,1.047,0,0,1,.913.508,3.715,3.715,0,0,1,.5,1.276,10.749,10.749,0,0,1,.217,1.557q.051.79.051,1.353v3.027a19.377,19.377,0,0,1-.153,2.5,5.36,5.36,0,0,1-.555,1.9,1.243,1.243,0,0,1-1.13.725.928.928,0,0,1-.7-.335,4.163,4.163,0,0,1-.55-.767v5.039Zm2.35-5.753q.358,0,.511-.443a4.5,4.5,0,0,0,.19-1.2c.027-.505.039-1.06.039-1.666V106q0-.781-.051-1.439a3.411,3.411,0,0,0-.217-1.049.551.551,0,0,0-.525-.388.8.8,0,0,0-.51.194,2.172,2.172,0,0,0-.422.454v8a1.908,1.908,0,0,0,.435.4A.963.963,0,0,0,183.3,112.34Z" transform="translate(-165.458 -96.314)" fill="#1d1d1b"/>
        <path id="Tracé_2124" data-name="Tracé 2124" d="M186.335,113.983v-12.5H187.7v1.774a4.137,4.137,0,0,1,.818-1.537,1.2,1.2,0,0,1,.816-.388h.1a.491.491,0,0,1,.121.021V103.9a1.629,1.629,0,0,0-.351-.184,1.127,1.127,0,0,0-.4-.076.827.827,0,0,0-.581.249,2.581,2.581,0,0,0-.517.963v9.126Z" transform="translate(-165.112 -96.312)" fill="#1d1d1b"/>
        <path id="Tracé_2125" data-name="Tracé 2125" d="M192.2,114.157a1.637,1.637,0,0,1-1.341-.573,3.551,3.551,0,0,1-.658-1.687,17.054,17.054,0,0,1-.185-2.736v-2.855a16.632,16.632,0,0,1,.192-2.769,3.458,3.458,0,0,1,.67-1.664,1.641,1.641,0,0,1,1.322-.562,1.543,1.543,0,0,1,1.373.648,4.217,4.217,0,0,1,.581,1.871,26.141,26.141,0,0,1,.14,2.931v1.016h-2.912v2.508a7.425,7.425,0,0,0,.083,1.233,1.531,1.531,0,0,0,.268.7.585.585,0,0,0,.479.227.519.519,0,0,0,.466-.248,1.738,1.738,0,0,0,.217-.714,9.026,9.026,0,0,0,.057-1.092v-.757h1.328v.476a7.564,7.564,0,0,1-.472,2.963A1.639,1.639,0,0,1,192.2,114.157Zm-.817-7.634h1.571V105.4q0-.777-.052-1.308a1.975,1.975,0,0,0-.21-.8.544.544,0,0,0-.5-.27.567.567,0,0,0-.5.26,2.041,2.041,0,0,0-.236.875c-.043.412-.064.977-.064,1.7Z" transform="translate(-164.876 -96.314)" fill="#1d1d1b"/>
        <path id="Tracé_2126" data-name="Tracé 2126" d="M195.2,113.984v-12.5h1.365v1.232a5,5,0,0,1,.818-.995,1.422,1.422,0,0,1,.983-.41.752.752,0,0,1,.682.388,2.716,2.716,0,0,1,.333.974,7.442,7.442,0,0,1,.1,1.189v10.122h-1.367v-9.451a3.7,3.7,0,0,0-.114-1.039.463.463,0,0,0-.473-.367.733.733,0,0,0-.479.226,3.466,3.466,0,0,0-.48.552v10.079Z" transform="translate(-164.543 -96.314)" fill="#1d1d1b"/>
        <path id="Tracé_2127" data-name="Tracé 2127" d="M202.191,114.449q-.932,0-1.392-1.157a11.75,11.75,0,0,1-.46-3.926v-2.422a23,23,0,0,1,.142-2.649,5.589,5.589,0,0,1,.53-1.958,1.231,1.231,0,0,1,1.142-.734.983.983,0,0,1,.678.28,3.06,3.06,0,0,1,.548.693V96.758h1.366v17.519h-1.366v-.8a2.9,2.9,0,0,1-.53.7A.926.926,0,0,1,202.191,114.449Zm.345-1.817a.85.85,0,0,0,.409-.119,1.708,1.708,0,0,0,.434-.355v-8.2a2.329,2.329,0,0,0-.4-.378.77.77,0,0,0-.472-.162q-.473,0-.638.767a8.878,8.878,0,0,0-.166,1.85v3.525q0,.865.059,1.569a3.437,3.437,0,0,0,.235,1.1A.574.574,0,0,0,202.535,112.632Z" transform="translate(-164.213 -96.606)" fill="#1d1d1b"/>
        <path id="Tracé_2128" data-name="Tracé 2128" d="M210.257,114.157a1.639,1.639,0,0,1-1.456-.962,5.68,5.68,0,0,1-.626-2.541l1.137-.584a6.461,6.461,0,0,0,.345,1.785c.162.4.4.594.715.594a.606.606,0,0,0,.562-.356,2.039,2.039,0,0,0,.192-.962,3.148,3.148,0,0,0-.141-.974,3.383,3.383,0,0,0-.46-.886l-1.264-1.838a5.977,5.977,0,0,1-.645-1.255,6.177,6.177,0,0,1-.026-3.471,2.284,2.284,0,0,1,.664-1.038,1.514,1.514,0,0,1,1-.357,1.462,1.462,0,0,1,1.347.962,6,6,0,0,1,.531,2.324l-.92.584a9.087,9.087,0,0,0-.153-1.135,2.211,2.211,0,0,0-.281-.757.545.545,0,0,0-.473-.27.594.594,0,0,0-.53.378,1.918,1.918,0,0,0-.2.9,2.483,2.483,0,0,0,.083.639,2.04,2.04,0,0,0,.287.616l1.3,2.033a8.778,8.778,0,0,1,.5.886,5.5,5.5,0,0,1,.389,1.082,5.753,5.753,0,0,1,.153,1.4,5.315,5.315,0,0,1-.255,1.774,2.29,2.29,0,0,1-.715,1.071A1.7,1.7,0,0,1,210.257,114.157Z" transform="translate(-163.711 -96.314)" fill="#1d1d1b"/>
        <path id="Tracé_2129" data-name="Tracé 2129" d="M215.048,114.157a1.6,1.6,0,0,1-1.29-.562,3.469,3.469,0,0,1-.67-1.6,13.206,13.206,0,0,1-.2-2.443v-3.634a13.206,13.206,0,0,1,.2-2.443,3.464,3.464,0,0,1,.67-1.6,1.593,1.593,0,0,1,1.29-.562,1.573,1.573,0,0,1,1.283.562,3.509,3.509,0,0,1,.664,1.6,13.2,13.2,0,0,1,.2,2.443v3.634a13.2,13.2,0,0,1-.2,2.443,3.514,3.514,0,0,1-.664,1.6A1.576,1.576,0,0,1,215.048,114.157Zm0-1.709a.562.562,0,0,0,.555-.388,3.145,3.145,0,0,0,.192-1.028c.022-.425.032-.867.032-1.33v-3.913c0-.477-.01-.924-.032-1.342a3.226,3.226,0,0,0-.192-1.027.563.563,0,0,0-.555-.4.572.572,0,0,0-.561.4,3.126,3.126,0,0,0-.2,1.027c-.02.418-.032.865-.032,1.342V109.7c0,.463.012.906.032,1.33a3.048,3.048,0,0,0,.2,1.028A.571.571,0,0,0,215.048,112.448Z" transform="translate(-163.408 -96.314)" fill="#1d1d1b"/>
        <path id="Tracé_2130" data-name="Tracé 2130" d="M218.2,99.871V97.449h1.366v2.422Zm0,14.361v-12.5h1.366v12.5Z" transform="translate(-163.067 -96.561)" fill="#1d1d1b"/>
        <path id="Tracé_2131" data-name="Tracé 2131" d="M220.858,113.984v-12.5h1.366v1.232a4.96,4.96,0,0,1,.817-.995,1.422,1.422,0,0,1,.983-.41.755.755,0,0,1,.683.388,2.715,2.715,0,0,1,.332.974,7.325,7.325,0,0,1,.1,1.189v10.122H223.77v-9.451a3.652,3.652,0,0,0-.115-1.039.463.463,0,0,0-.472-.367.734.734,0,0,0-.479.226,3.463,3.463,0,0,0-.479.552v10.079Z" transform="translate(-162.897 -96.314)" fill="#1d1d1b"/>
        <path id="Tracé_2132" data-name="Tracé 2132" d="M230.594,114.449q-.932,0-1.391-1.157a11.742,11.742,0,0,1-.461-3.926v-2.422a23,23,0,0,1,.142-2.649,5.588,5.588,0,0,1,.53-1.958,1.232,1.232,0,0,1,1.142-.734.979.979,0,0,1,.678.28,3.093,3.093,0,0,1,.549.693V96.758h1.366v17.519h-1.366v-.8a2.958,2.958,0,0,1-.53.7A.931.931,0,0,1,230.594,114.449Zm.346-1.817a.843.843,0,0,0,.408-.119,1.729,1.729,0,0,0,.435-.355v-8.2a2.411,2.411,0,0,0-.4-.378.773.773,0,0,0-.474-.162q-.473,0-.637.767a8.8,8.8,0,0,0-.167,1.85v3.525q0,.865.059,1.569a3.4,3.4,0,0,0,.236,1.1A.572.572,0,0,0,230.94,112.632Z" transform="translate(-162.391 -96.606)" fill="#1d1d1b"/>
        <path id="Tracé_2133" data-name="Tracé 2133" d="M236.231,114.157a1.64,1.64,0,0,1-1.342-.573,3.539,3.539,0,0,1-.657-1.687,16.923,16.923,0,0,1-.186-2.736v-2.855a16.5,16.5,0,0,1,.193-2.769,3.468,3.468,0,0,1,.669-1.664,1.641,1.641,0,0,1,1.323-.562,1.545,1.545,0,0,1,1.373.648,4.231,4.231,0,0,1,.581,1.871,26.433,26.433,0,0,1,.139,2.931v1.016h-2.912v2.508a7.423,7.423,0,0,0,.083,1.233,1.531,1.531,0,0,0,.268.7.587.587,0,0,0,.479.227.517.517,0,0,0,.466-.248,1.722,1.722,0,0,0,.217-.714,9.013,9.013,0,0,0,.059-1.092v-.757h1.328v.476a7.561,7.561,0,0,1-.474,2.963A1.638,1.638,0,0,1,236.231,114.157Zm-.818-7.634h1.572V105.4q0-.777-.052-1.308a1.992,1.992,0,0,0-.21-.8.545.545,0,0,0-.506-.27.568.568,0,0,0-.5.26,2.043,2.043,0,0,0-.235.875c-.043.412-.065.977-.065,1.7Z" transform="translate(-162.05 -96.314)" fill="#1d1d1b"/>
        <path id="Tracé_2134" data-name="Tracé 2134" d="M243.917,114.277l-2.311-17.519h1.354l1.635,12.912,1.558-12.912h1.315l-2.286,17.519Z" transform="translate(-161.565 -96.606)" fill="#134dbf"/>
        <path id="Tracé_2135" data-name="Tracé 2135" d="M249.955,114.157a1.6,1.6,0,0,1-1.29-.562,3.469,3.469,0,0,1-.67-1.6,13.209,13.209,0,0,1-.2-2.443v-3.634a13.208,13.208,0,0,1,.2-2.443,3.464,3.464,0,0,1,.67-1.6,1.593,1.593,0,0,1,1.29-.562,1.573,1.573,0,0,1,1.283.562,3.508,3.508,0,0,1,.664,1.6,13.187,13.187,0,0,1,.2,2.443v3.634a13.188,13.188,0,0,1-.2,2.443,3.513,3.513,0,0,1-.664,1.6A1.576,1.576,0,0,1,249.955,114.157Zm0-1.709a.564.564,0,0,0,.557-.388,3.179,3.179,0,0,0,.19-1.028q.034-.637.033-1.33v-3.913q0-.715-.033-1.342a3.261,3.261,0,0,0-.19-1.027.566.566,0,0,0-.557-.4.572.572,0,0,0-.561.4,3.125,3.125,0,0,0-.2,1.027c-.02.418-.032.865-.032,1.342V109.7c0,.463.012.906.032,1.33a3.046,3.046,0,0,0,.2,1.028A.571.571,0,0,0,249.955,112.448Z" transform="translate(-161.168 -96.314)" fill="#134dbf"/>
        <path id="Tracé_2136" data-name="Tracé 2136" d="M254.08,114.146a.757.757,0,0,1-.677-.388,2.625,2.625,0,0,1-.337-.974,7.234,7.234,0,0,1-.1-1.19V101.473h1.366v9.43a3.754,3.754,0,0,0,.115,1.048.465.465,0,0,0,.472.379.728.728,0,0,0,.479-.227,3.411,3.411,0,0,0,.479-.552V101.473h1.366v12.5h-1.366v-1.232a4.509,4.509,0,0,1-.811.994A1.445,1.445,0,0,1,254.08,114.146Z" transform="translate(-160.836 -96.303)" fill="#134dbf"/>
        <path id="Tracé_2137" data-name="Tracé 2137" d="M260.031,114.157a1.642,1.642,0,0,1-1.456-.962,5.679,5.679,0,0,1-.626-2.541l1.138-.584a6.385,6.385,0,0,0,.345,1.785c.161.4.4.594.715.594a.6.6,0,0,0,.561-.356,2.038,2.038,0,0,0,.193-.962,3.148,3.148,0,0,0-.141-.974,3.423,3.423,0,0,0-.461-.886l-1.263-1.838a5.931,5.931,0,0,1-.646-1.255,6.166,6.166,0,0,1-.025-3.471,2.267,2.267,0,0,1,.664-1.038,1.512,1.512,0,0,1,1-.357,1.463,1.463,0,0,1,1.348.962,5.979,5.979,0,0,1,.53,2.324l-.919.584a9.1,9.1,0,0,0-.154-1.135,2.168,2.168,0,0,0-.281-.757.543.543,0,0,0-.472-.27.594.594,0,0,0-.53.378,1.918,1.918,0,0,0-.2.9,2.439,2.439,0,0,0,.083.639,2.011,2.011,0,0,0,.286.616l1.3,2.033a8.768,8.768,0,0,1,.5.886,5.5,5.5,0,0,1,.391,1.082,5.812,5.812,0,0,1,.152,1.4,5.315,5.315,0,0,1-.255,1.774,2.281,2.281,0,0,1-.715,1.071A1.7,1.7,0,0,1,260.031,114.157Z" transform="translate(-160.516 -96.314)" fill="#134dbf"/>
        <path id="Tracé_2138" data-name="Tracé 2138" d="M265.92,110.535l-.435-13.777h1.38l-.46,13.777Zm-.435,3.742V111.9h1.38v2.38Z" transform="translate(-160.033 -96.606)" fill="#1d1d1b"/>
      </g>
    </g>
    <g id="nom" transform="translate(114.193 14.163)">
      <g id="Groupe_1624" data-name="Groupe 1624" transform="translate(0 12.735)">
        <g id="Groupe_1622" data-name="Groupe 1622">
          <path id="Tracé_2139" data-name="Tracé 2139" d="M127.608,39.606H112.093v7.716h13.889V51.65H112.093v7.881h16v4.328H107.3V35.277h20.308Zm-3.7-11.434-4.955,4h-4.143l4.306-6.043Z" transform="translate(-107.3 -26.13)" fill="#010202"/>
          <path id="Tracé_2140" data-name="Tracé 2140" d="M132.336,34.725h11.657a14.508,14.508,0,0,1,10.539,4.043,13.672,13.672,0,0,1,4.163,10.248,13.644,13.644,0,0,1-4.182,10.249,14.686,14.686,0,0,1-10.642,4.043H132.336Zm4.793,4.329V58.98h6.985a9.424,9.424,0,0,0,6.965-2.8,9.678,9.678,0,0,0,2.782-7.126,9.74,9.74,0,0,0-9.949-10Z" transform="translate(-105.693 -25.578)" fill="#010202"/>
        </g>
        <g id="Groupe_1623" data-name="Groupe 1623">
          <path id="Tracé_2141" data-name="Tracé 2141" d="M127.608,39.606H112.093v7.716h13.889V51.65H112.093v7.881h16v4.328H107.3V35.277h20.308Zm-3.7-11.434-4.955,4h-4.143l4.306-6.043Z" transform="translate(-107.3 -26.13)" fill="#134dbf"/>
          <path id="Tracé_2142" data-name="Tracé 2142" d="M132.336,34.725h11.657a14.508,14.508,0,0,1,10.539,4.043,13.672,13.672,0,0,1,4.163,10.248,13.644,13.644,0,0,1-4.182,10.249,14.686,14.686,0,0,1-10.642,4.043H132.336Zm4.793,4.329V58.98h6.985a9.424,9.424,0,0,0,6.965-2.8,9.678,9.678,0,0,0,2.782-7.126,9.74,9.74,0,0,0-9.949-10Z" transform="translate(-105.693 -25.578)" fill="#134dbf"/>
        </g>
      </g>
      <g id="phare" transform="translate(62.902)">
        <path id="Tracé_2143" data-name="Tracé 2143" d="M179.638,64.627H166.512a4.906,4.906,0,0,1,0-1.893c.068-1.244.167-2.487.262-3.73.125-1.636.233-3.272.364-4.908.088-1.112.15-2.226.24-3.338.138-1.717.253-3.435.38-5.153.119-1.619.228-3.239.344-4.859.118-1.653.247-3.3.364-4.957.113-1.6.251-3.205.341-4.81,0-.066-.011.014,0-.049.168-.773.043-1.366-.865-1.637a.906.906,0,0,1-.545-.885c-.034-.476-.018-.952-.01-1.428.007-.35.183-.5.545-.486.287.012.577,0,.864-.01a.36.36,0,0,0,.409-.394c.008-.265-.06-.453-.382-.458-.454-.006-.621-.268-.625-.673,0-.2,0-.394,0-.592,0-.344.14-.582.529-.582.425,0,.49-.242.487-.581-.009-1.1-.059-2.2.011-3.3a3.961,3.961,0,0,1,2.556-3.481c.816-.226.827-.311.431-1.062-.283-.535-.105-.954.508-1.2h.51c.644.26.781.625.467,1.243-.335.659-.291.773.393,1a3.392,3.392,0,0,1,2.2,2.034,1.4,1.4,0,0,0,.451.693c.229.167.2.441.2.685.006,1.083.012,2.167,0,3.25,0,.4.021.726.552.747a.351.351,0,0,1,.33.327,3.573,3.573,0,0,1,0,1.127c-.041.256-.24.291-.455.288-.388,0-.416.246-.418.533,0,.315.154.441.467.441.287,0,.576-.006.863.017a.458.458,0,0,1,.482.468,7.627,7.627,0,0,1-.014,1.377,1.3,1.3,0,0,1-.783,1.022c-.695.349-.752.478-.691,1.191.154,1.78.267,3.564.4,5.346.116,1.586.239,3.171.358,4.757q.18,2.428.35,4.857c.109,1.587.23,3.173.348,4.759q.182,2.43.358,4.858c.119,1.652.234,3.3.364,4.955-.31-3.913-.192-2.549.295,4.122A.474.474,0,0,1,179.638,64.627Z" transform="translate(-166.409 -14.163)" fill="#134dbf"/>
        <path id="Tracé_2144" data-name="Tracé 2144" d="M173.127,62.609c-1.778,0-3.556-.007-5.335.012-.2,0-.232-.049-.215-.192.1-.817.138-1.639.193-2.459.1-1.546.27-3.088.392-4.633.042-.533.039-1.066.091-1.6.118-1.194.122-2.4.228-3.595.122-1.387.209-2.775.309-4.163.1-1.4.2-2.809.305-4.214.1-1.388.2-2.775.306-4.163.1-1.372.212-2.742.3-4.115.092-1.389.267-2.772.286-4.165,0-.279.16-.319.345-.3,1.614.151,3.232-.029,4.846.06.246.014.57-.111.724,0,.232.169.068.516.1.785.17,1.624.2,3.257.4,4.879.065.513.031,1.032.089,1.554.131,1.159.135,2.332.229,3.5.116,1.453.211,2.907.315,4.36.1,1.356.205,2.71.3,4.066.1,1.438.215,2.873.312,4.311.093,1.356.2,2.71.3,4.066.106,1.437.212,2.874.325,4.31a5.16,5.16,0,0,0,.149,1.528c.049.129-.013.189-.212.187C176.514,62.6,174.82,62.609,173.127,62.609Z" transform="translate(-166.334 -13.21)" fill="#fff"/>
        <path id="Tracé_2145" data-name="Tracé 2145" d="M175.588,24.052c.293,0,.6.009.9,0,.185-.007.228.071.223.233s-.071.173-.219.179c-.309.012-.719-.175-.9.092-.139.208-.03.573-.027.867,0,.4.2.944-.064,1.167-.235.2-.787.012-1.192.057-1.251.143-2.506-.133-3.755.059-.27.042-.38-.076-.367-.356.023-.509-.017-1.019.016-1.527.02-.315-.1-.407-.393-.376-.117.013-.238-.011-.354.005-.166.023-.2-.048-.2-.189s.038-.2.2-.213c.245-.018.586.133.71-.078s.035-.511.035-.773c0-.968.014-1.938-.007-2.906-.007-.352.078-.492.476-.485,1.491.021,2.983.006,4.474.011.19,0,.447-.07.448.245C175.59,21.376,175.588,22.69,175.588,24.052Z" transform="translate(-166.226 -13.801)" fill="#fff"/>
        <path id="Tracé_2146" data-name="Tracé 2146" d="M172.941,26.853c1.339,0,2.676-.005,4.014.007.143,0,.408-.147.411.183,0,.248.071.538-.309.593a.8.8,0,0,0-.581.335,1.428,1.428,0,0,1-1.4.569c-1.591-.036-3.184-.015-4.776-.01a.622.622,0,0,1-.577-.241,1.635,1.635,0,0,0-.985-.693c-.33-.06-.206-.348-.219-.556-.018-.295.222-.184.359-.185C170.23,26.85,171.586,26.853,172.941,26.853Z" transform="translate(-166.275 -13.35)" fill="#fff"/>
        <path id="Tracé_2147" data-name="Tracé 2147" d="M173.591,56.008c-.033.285.153.733-.072.934-.183.164-.641.039-.976.043a1.107,1.107,0,0,0-.352.009c-.238.088-.332.027-.331-.215,0-.541.01-1.082,0-1.623-.005-.2.074-.258.265-.242.134.011.27,0,.405,0C173.591,54.915,173.591,54.915,173.591,56.008Z" transform="translate(-166.059 -11.548)" fill="#134dbf"/>
        <path id="Tracé_2148" data-name="Tracé 2148" d="M173.591,39.025c0,1.011,0,1.011-1.042,1.011-.689,0-.689,0-.689-.664,0-.378.013-.757,0-1.133-.01-.215.06-.3.284-.275a3.046,3.046,0,0,0,.355,0C173.591,37.966,173.591,37.966,173.591,39.025Z" transform="translate(-166.059 -12.636)" fill="#134dbf"/>
        <path id="Tracé_2149" data-name="Tracé 2149" d="M171.287,20.555c.891,0,1.744.02,2.6-.012.28-.011.338.046.334.3-.013.785-.017,1.572,0,2.356.006.275-.1.324-.353.319-.76-.013-1.521-.009-2.281,0-.194,0-.309-.014-.3-.254C171.295,22.347,171.287,21.433,171.287,20.555Z" transform="translate(-166.096 -13.754)" fill="#134dbf"/>
      </g>
      <g id="Groupe_1625" data-name="Groupe 1625" transform="translate(83.265 21.555)">
        <path id="Tracé_2150" data-name="Tracé 2150" d="M200.49,34.418a15.455,15.455,0,0,1,5.868,1.164,14.644,14.644,0,0,1,4.935,3.246l-2.8,3.512a11.5,11.5,0,0,0-3.655-2.654,10.044,10.044,0,0,0-4.264-.98,9.845,9.845,0,0,0-7.209,2.92,10.139,10.139,0,0,0,0,14.291,9.844,9.844,0,0,0,7.209,2.919,11.084,11.084,0,0,0,7.92-3.388l2.842,3.184a16.592,16.592,0,0,1-5.117,3.431,14.712,14.712,0,0,1-5.89,1.265,14.428,14.428,0,0,1-10.518-4.185,13.928,13.928,0,0,1-4.264-10.351,13.6,13.6,0,0,1,4.325-10.228A14.771,14.771,0,0,1,200.49,34.418Z" transform="translate(-185.544 -34.418)" fill="#134dbf"/>
        <path id="Tracé_2151" data-name="Tracé 2151" d="M232.748,56.665H218.41l-2.72,6.451h-5l12.55-28.583h4.914l12.429,28.583h-5.118Zm-1.828-4.288-5.36-12.7-5.361,12.7Z" transform="translate(-183.93 -34.411)" fill="#134dbf"/>
        <path id="Tracé_2152" data-name="Tracé 2152" d="M242.333,34.534h11.331q5.362,0,8.306,2.552a9.023,9.023,0,0,1,2.945,7.207,9.653,9.653,0,0,1-2.945,7.533q-2.945,2.675-8.306,2.674h-6.538v8.617h-4.793Zm4.793,4.328V50.173h6.336q6.862,0,6.863-5.758,0-5.552-6.863-5.553Z" transform="translate(-181.899 -34.411)" fill="#134dbf"/>
      </g>
    </g>
  </g>
</svg>
