<svg id="logo" xmlns="http://www.w3.org/2000/svg" viewBox="0 0 278.77 135"><defs><style>.cls-1{fill:#008d36;}.cls-2{fill:#1d1d1b;}.cls-3{fill:#134dbf;}.cls-4{fill:#010202;}.cls-5{fill:#fff;}</style></defs><g id="electrocardiogramme"><path class="cls-1" d="M101.9,112.7a3.22,3.22,0,0,1-3.22-2.85L88.31,26.94l-17,25.15a3.24,3.24,0,0,1-5.34,0L48.19,26.87l-7.52,65a3.24,3.24,0,0,1-6.34.52l-9.6-33.49L20.31,80a3.24,3.24,0,0,1-5.86,1.16L3,64.28H-.11v-4H3.41A3.25,3.25,0,0,1,6.1,61.7L16.76,77.44l4.68-22.37a3.24,3.24,0,0,1,6.29-.23l9.41,32.79,7.31-63.19A3.25,3.25,0,0,1,50.33,23l18.3,26L86.12,23A3.25,3.25,0,0,1,92,24.45l9.86,78.78,4.62-38.78a3.25,3.25,0,0,1,3.23-2.87h169v4H110.41l-5.28,44.25a3.22,3.22,0,0,1-3.22,2.87Zm7.84-47.12h0Z"/></g><g id="base_line" data-name="base line"><path class="cls-2" d="M118.61,89.59V73h2.55a2,2,0,0,1,1.47.54,3.24,3.24,0,0,1,.8,1.57,10.33,10.33,0,0,1,.25,2.47,8.05,8.05,0,0,1-.28,2.27,3.21,3.21,0,0,1-.84,1.48,2,2,0,0,1-1.39.52H120v7.71ZM120,80.23h.66a1.78,1.78,0,0,0,1-.23,1.25,1.25,0,0,0,.51-.78,6.56,6.56,0,0,0,.15-1.59,10.62,10.62,0,0,0-.11-1.82,1.3,1.3,0,0,0-.45-.88,1.84,1.84,0,0,0-1.06-.24H120Z"/><path class="cls-2" d="M124.61,89.59V77.77H126v1.68a3.92,3.92,0,0,1,.81-1.45,1.2,1.2,0,0,1,.81-.37h.1l.12,0v2.41a2.28,2.28,0,0,0-.35-.17,1.12,1.12,0,0,0-.4-.07.89.89,0,0,0-.58.23A2.5,2.5,0,0,0,126,81v8.63Z"/><path class="cls-2" d="M130.64,89.76a1.64,1.64,0,0,1-1.28-.53,3.24,3.24,0,0,1-.66-1.52,11.89,11.89,0,0,1-.2-2.31V82a11.89,11.89,0,0,1,.2-2.31,3.24,3.24,0,0,1,.66-1.52,1.64,1.64,0,0,1,1.28-.53,1.59,1.59,0,0,1,1.27.53,3.24,3.24,0,0,1,.66,1.52,11.89,11.89,0,0,1,.2,2.31V85.4a11.89,11.89,0,0,1-.2,2.31,3.24,3.24,0,0,1-.66,1.52A1.59,1.59,0,0,1,130.64,89.76Zm0-1.62a.55.55,0,0,0,.55-.37,2.68,2.68,0,0,0,.19-1c0-.4,0-.82,0-1.25V81.84q0-.68,0-1.26a2.89,2.89,0,0,0-.19-1,.55.55,0,0,0-.55-.37.56.56,0,0,0-.55.37,2.87,2.87,0,0,0-.2,1q0,.58,0,1.26v3.71c0,.43,0,.85,0,1.25a2.66,2.66,0,0,0,.2,1A.56.56,0,0,0,130.64,88.14Z"/><path class="cls-2" d="M136,89.76a1.64,1.64,0,0,1-1.36-.58,3.38,3.38,0,0,1-.62-1.65,16.38,16.38,0,0,1-.16-2.48V82.33a16.77,16.77,0,0,1,.16-2.54,3.36,3.36,0,0,1,.63-1.62,1.66,1.66,0,0,1,1.35-.56,1.7,1.7,0,0,1,1.23.42,2.33,2.33,0,0,1,.6,1.25,10.71,10.71,0,0,1,.16,2V82h-1.22v-.72a8.06,8.06,0,0,0-.07-1.23,1.37,1.37,0,0,0-.22-.65.56.56,0,0,0-.47-.2.6.6,0,0,0-.51.24,1.8,1.8,0,0,0-.23.83c0,.39-.06.92-.06,1.58v3.73a7.25,7.25,0,0,0,.18,2,.65.65,0,0,0,.63.51.54.54,0,0,0,.5-.25,1.67,1.67,0,0,0,.2-.73c0-.31.05-.67.05-1.06v-1H138V86a10.14,10.14,0,0,1-.17,2,2.54,2.54,0,0,1-.6,1.31A1.62,1.62,0,0,1,136,89.76Z"/><path class="cls-2" d="M139.24,89.59V73h1.36v6a4.69,4.69,0,0,1,.82-1,1.48,1.48,0,0,1,1-.41.72.72,0,0,1,.66.37,2.32,2.32,0,0,1,.33.92,6,6,0,0,1,.1,1.12v9.57h-1.35V80.66a3.13,3.13,0,0,0-.12-1,.44.44,0,0,0-.47-.35.79.79,0,0,0-.5.22,3,3,0,0,0-.48.56v9.48Z"/><path class="cls-2" d="M146.86,89.76a1.67,1.67,0,0,1-1.33-.54,3.29,3.29,0,0,1-.65-1.6A15.65,15.65,0,0,1,144.7,85v-2.7a15.74,15.74,0,0,1,.18-2.61,3.22,3.22,0,0,1,.67-1.58,1.68,1.68,0,0,1,1.31-.53,1.58,1.58,0,0,1,1.36.61,3.84,3.84,0,0,1,.57,1.77,22.17,22.17,0,0,1,.14,2.77v1h-2.88V86.1a7.16,7.16,0,0,0,.08,1.16,1.4,1.4,0,0,0,.27.67.59.59,0,0,0,.47.21.53.53,0,0,0,.46-.23,1.55,1.55,0,0,0,.22-.68,7.79,7.79,0,0,0,0-1v-.72h1.32v.45a7,7,0,0,1-.47,2.81A1.62,1.62,0,0,1,146.86,89.76Zm-.81-7.22h1.55V81.48a11,11,0,0,0,0-1.24,1.89,1.89,0,0,0-.2-.76.55.55,0,0,0-.5-.25.57.57,0,0,0-.5.24,1.78,1.78,0,0,0-.24.83c0,.39-.06.92-.06,1.61Z"/><path class="cls-2" d="M154.75,89.76a1.5,1.5,0,0,1-1.38-1.1,10.69,10.69,0,0,1-.45-3.71V82.66a19.5,19.5,0,0,1,.14-2.5,5,5,0,0,1,.52-1.85,1.23,1.23,0,0,1,1.13-.7,1,1,0,0,1,.67.27,2.52,2.52,0,0,1,.55.65V73h1.35V89.59h-1.35v-.75a2.79,2.79,0,0,1-.53.66A.94.94,0,0,1,154.75,89.76Zm.34-1.72a1,1,0,0,0,.41-.11,2.06,2.06,0,0,0,.43-.34V79.84a2.19,2.19,0,0,0-.39-.36.82.82,0,0,0-.47-.15c-.32,0-.53.24-.64.72a8.78,8.78,0,0,0-.16,1.75v3.34c0,.54,0,1,.06,1.48a3.15,3.15,0,0,0,.23,1A.56.56,0,0,0,155.09,88Z"/><path class="cls-2" d="M160.67,89.76a1.67,1.67,0,0,1-1.33-.54,3.29,3.29,0,0,1-.65-1.6,15.65,15.65,0,0,1-.18-2.59v-2.7a14.61,14.61,0,0,1,.19-2.61,3.12,3.12,0,0,1,.66-1.58,1.68,1.68,0,0,1,1.31-.53,1.57,1.57,0,0,1,1.36.61,4,4,0,0,1,.58,1.77,24.28,24.28,0,0,1,.14,2.77v1h-2.89V86.1a7.16,7.16,0,0,0,.08,1.16,1.5,1.5,0,0,0,.27.67.59.59,0,0,0,.47.21.54.54,0,0,0,.47-.23,1.71,1.71,0,0,0,.21-.68,7.62,7.62,0,0,0,.06-1v-.72h1.31v.45a6.78,6.78,0,0,1-.47,2.81A1.62,1.62,0,0,1,160.67,89.76Zm-.81-7.22h1.56V81.48c0-.49,0-.91,0-1.24a2,2,0,0,0-.21-.76.54.54,0,0,0-.5-.25.57.57,0,0,0-.5.24,1.91,1.91,0,0,0-.24.83c0,.39-.06.92-.06,1.61Z"/><path class="cls-2" d="M168.87,89.76a1.65,1.65,0,0,1-1.36-.58,3.38,3.38,0,0,1-.62-1.65,16.38,16.38,0,0,1-.16-2.48V82.33a16.77,16.77,0,0,1,.16-2.54,3.36,3.36,0,0,1,.63-1.62,1.66,1.66,0,0,1,1.35-.56,1.7,1.7,0,0,1,1.23.42,2.33,2.33,0,0,1,.6,1.25,10.62,10.62,0,0,1,.17,2V82h-1.23v-.72a9.92,9.92,0,0,0-.06-1.23,1.48,1.48,0,0,0-.23-.65.56.56,0,0,0-.47-.2.6.6,0,0,0-.51.24,1.93,1.93,0,0,0-.23.83c0,.39-.06.92-.06,1.58v3.73a7.25,7.25,0,0,0,.18,2,.65.65,0,0,0,.63.51.53.53,0,0,0,.5-.25,1.67,1.67,0,0,0,.2-.73c0-.31,0-.67,0-1.06v-1h1.23V86a10.92,10.92,0,0,1-.17,2,2.63,2.63,0,0,1-.61,1.31A1.62,1.62,0,0,1,168.87,89.76Z"/><path class="cls-2" d="M172.11,89.59V73h1.35v6a4.69,4.69,0,0,1,.82-1,1.48,1.48,0,0,1,1-.41A.75.75,0,0,1,176,78a2.68,2.68,0,0,1,.33.92,7,7,0,0,1,.09,1.12v9.57H175V80.66a3.13,3.13,0,0,0-.12-1,.44.44,0,0,0-.46-.35.76.76,0,0,0-.5.22,2.7,2.7,0,0,0-.49.56v9.48Z"/><path class="cls-2" d="M179.72,89.76a1.67,1.67,0,0,1-1.33-.54,3.29,3.29,0,0,1-.65-1.6,15.65,15.65,0,0,1-.18-2.59v-2.7a14.61,14.61,0,0,1,.19-2.61,3.12,3.12,0,0,1,.66-1.58,1.68,1.68,0,0,1,1.31-.53,1.57,1.57,0,0,1,1.36.61,4,4,0,0,1,.58,1.77,24.52,24.52,0,0,1,.13,2.77v1h-2.88V86.1a7.16,7.16,0,0,0,.08,1.16,1.5,1.5,0,0,0,.27.67.59.59,0,0,0,.47.21.54.54,0,0,0,.47-.23,1.71,1.71,0,0,0,.21-.68,7.62,7.62,0,0,0,.06-1v-.72h1.31v.45a6.78,6.78,0,0,1-.47,2.81A1.62,1.62,0,0,1,179.72,89.76Zm-.81-7.22h1.56V81.48c0-.49,0-.91-.05-1.24a2,2,0,0,0-.21-.76.54.54,0,0,0-.5-.25.57.57,0,0,0-.5.24,1.91,1.91,0,0,0-.24.83c0,.39-.06.92-.06,1.61Z"/><path class="cls-2" d="M182.74,89.59V88.12L185,79.41h-2V77.77h3.47V79l-2.25,9h2.2v1.65Z"/><path class="cls-3" d="M192.2,89.59,189.92,73h1.34l1.62,12.21L194.42,73h1.3l-2.26,16.56Z"/><path class="cls-3" d="M198.58,89.76a1.63,1.63,0,0,1-1.28-.53,3.24,3.24,0,0,1-.66-1.52,11.89,11.89,0,0,1-.2-2.31V82a11.89,11.89,0,0,1,.2-2.31,3.24,3.24,0,0,1,.66-1.52,1.63,1.63,0,0,1,1.28-.53,1.61,1.61,0,0,1,1.27.53,3.24,3.24,0,0,1,.66,1.52,11.89,11.89,0,0,1,.2,2.31V85.4a11.89,11.89,0,0,1-.2,2.31,3.24,3.24,0,0,1-.66,1.52A1.61,1.61,0,0,1,198.58,89.76Zm0-1.62a.56.56,0,0,0,.55-.37,2.68,2.68,0,0,0,.19-1c0-.4,0-.82,0-1.25V81.84q0-.68,0-1.26a2.89,2.89,0,0,0-.19-1,.56.56,0,0,0-.55-.37.57.57,0,0,0-.56.37,2.89,2.89,0,0,0-.19,1q0,.58,0,1.26v3.71c0,.43,0,.85,0,1.25a2.68,2.68,0,0,0,.19,1A.57.57,0,0,0,198.58,88.14Z"/><path class="cls-3" d="M203,89.76a.76.76,0,0,1-.68-.37,2.38,2.38,0,0,1-.33-.92,7,7,0,0,1-.1-1.13V77.77h1.36v8.92a3.65,3.65,0,0,0,.11,1,.46.46,0,0,0,.47.36.73.73,0,0,0,.47-.21,3.1,3.1,0,0,0,.48-.53V77.77h1.35V89.59h-1.35V88.43a4.4,4.4,0,0,1-.81.94A1.43,1.43,0,0,1,203,89.76Z"/><path class="cls-3" d="M209.21,89.76a1.64,1.64,0,0,1-1.45-.91,5.22,5.22,0,0,1-.62-2.4l1.13-.56a6,6,0,0,0,.34,1.69.76.76,0,0,0,.71.56.62.62,0,0,0,.56-.33,2,2,0,0,0,.19-.91,3,3,0,0,0-.14-.93,3.29,3.29,0,0,0-.46-.83l-1.25-1.74a5.64,5.64,0,0,1-.64-1.19,4.71,4.71,0,0,1-.26-1.7,4.84,4.84,0,0,1,.23-1.58,2.18,2.18,0,0,1,.66-1,1.55,1.55,0,0,1,1-.34,1.44,1.44,0,0,1,1.33.91,5.36,5.36,0,0,1,.52,2.2l-.91.55A7.06,7.06,0,0,0,210,80.2a2,2,0,0,0-.28-.72.52.52,0,0,0-.46-.25.6.6,0,0,0-.53.35,1.78,1.78,0,0,0-.19.85,2.09,2.09,0,0,0,.08.61,1.93,1.93,0,0,0,.28.58l1.29,1.92a6.9,6.9,0,0,1,.5.84,4.71,4.71,0,0,1,.39,1,5.29,5.29,0,0,1,.15,1.33,5,5,0,0,1-.25,1.68,2.16,2.16,0,0,1-.71,1A1.72,1.72,0,0,1,209.21,89.76Z"/><path class="cls-2" d="M212.28,92.27l-.22-.94a1.21,1.21,0,0,0,.54-.64,2.81,2.81,0,0,0,.2-1.1h-.72V87.24h1.39v2.31a4.32,4.32,0,0,1-.29,1.73A2.16,2.16,0,0,1,212.28,92.27Z"/><path class="cls-2" d="M169.06,113.4a2,2,0,0,1-1.58-.65,3.92,3.92,0,0,1-.84-1.86,14.58,14.58,0,0,1-.25-2.83v-6.24a13.27,13.27,0,0,1,.26-2.8,3.7,3.7,0,0,1,.84-1.78,2.27,2.27,0,0,1,3.13,0,3.84,3.84,0,0,1,.83,1.78,13.17,13.17,0,0,1,.26,2.79v6.26a13.55,13.55,0,0,1-.26,2.8,4.12,4.12,0,0,1-.83,1.86A2,2,0,0,1,169.06,113.4Zm0-1.81a.93.93,0,0,0,.81-.37,2.2,2.2,0,0,0,.37-1.06,10.55,10.55,0,0,0,.1-1.59v-7.22a10.18,10.18,0,0,0-.1-1.57,2.08,2.08,0,0,0-.37-1,1,1,0,0,0-.81-.36,1,1,0,0,0-.83.36,2.08,2.08,0,0,0-.37,1,10.18,10.18,0,0,0-.1,1.57v7.22a10.55,10.55,0,0,0,.1,1.59,2.2,2.2,0,0,0,.37,1.06A1,1,0,0,0,169.06,111.59Z"/><path class="cls-2" d="M172.93,113.22V101.47h1.28v1.16a4.83,4.83,0,0,1,.77-.93,1.34,1.34,0,0,1,.93-.39.7.7,0,0,1,.64.37,2.43,2.43,0,0,1,.31.91,7,7,0,0,1,.09,1.12v9.51h-1.28v-8.88a3.52,3.52,0,0,0-.11-1,.43.43,0,0,0-.44-.34.67.67,0,0,0-.45.21,3.4,3.4,0,0,0-.46.52v9.47Z"/><path class="cls-2" d="M181,117.08V101.47h1.28v.94a3,3,0,0,1,.55-.77,1,1,0,0,1,.77-.33,1,1,0,0,1,.86.48,3.46,3.46,0,0,1,.47,1.2,10.27,10.27,0,0,1,.21,1.46c0,.5,0,.92,0,1.27v2.85a17.52,17.52,0,0,1-.14,2.34,5.14,5.14,0,0,1-.52,1.79,1.16,1.16,0,0,1-1.06.68.86.86,0,0,1-.66-.31,3.49,3.49,0,0,1-.52-.72v4.73Zm2.21-5.41c.22,0,.38-.13.47-.41a3.91,3.91,0,0,0,.18-1.13c0-.47,0-1,0-1.56v-2.85c0-.49,0-.94,0-1.35a3.37,3.37,0,0,0-.2-1,.51.51,0,0,0-.49-.36.76.76,0,0,0-.48.18,1.64,1.64,0,0,0-.4.43v7.52a1.79,1.79,0,0,0,.41.37A.91.91,0,0,0,183.16,111.67Z"/><path class="cls-2" d="M186.33,113.22V101.47h1.29v1.67a3.82,3.82,0,0,1,.77-1.44,1.09,1.09,0,0,1,.77-.37h.09l.11,0v2.4a1.29,1.29,0,0,0-.33-.17,1,1,0,0,0-.38-.08.75.75,0,0,0-.54.24,2.32,2.32,0,0,0-.49.9v8.58Z"/><path class="cls-2" d="M192.07,113.38a1.55,1.55,0,0,1-1.26-.54,3.26,3.26,0,0,1-.62-1.58,16.87,16.87,0,0,1-.17-2.57V106a15.61,15.61,0,0,1,.18-2.6,3.22,3.22,0,0,1,.63-1.56,1.55,1.55,0,0,1,1.24-.53,1.44,1.44,0,0,1,1.29.61,3.93,3.93,0,0,1,.55,1.76,24,24,0,0,1,.13,2.75v1H191.3v2.35a7.07,7.07,0,0,0,.08,1.16,1.47,1.47,0,0,0,.25.66.55.55,0,0,0,.45.22.48.48,0,0,0,.44-.24,1.52,1.52,0,0,0,.2-.67,7.57,7.57,0,0,0,.06-1v-.72H194v.45a7.06,7.06,0,0,1-.45,2.79A1.54,1.54,0,0,1,192.07,113.38Zm-.77-7.17h1.48v-1.06c0-.49,0-.9-.05-1.23a1.83,1.83,0,0,0-.2-.75.5.5,0,0,0-.47-.25.55.55,0,0,0-.48.24,2,2,0,0,0-.22.82c0,.39-.06.92-.06,1.6Z"/><path class="cls-2" d="M195.2,113.22V101.47h1.29v1.16a4.45,4.45,0,0,1,.76-.93,1.34,1.34,0,0,1,.93-.39.7.7,0,0,1,.64.37,2.43,2.43,0,0,1,.31.91,7,7,0,0,1,.09,1.12v9.51h-1.28v-8.88a3.52,3.52,0,0,0-.11-1,.43.43,0,0,0-.44-.34.67.67,0,0,0-.45.21,2.91,2.91,0,0,0-.45.52v9.47Z"/><path class="cls-2" d="M202.08,113.38c-.58,0-1-.36-1.31-1.09a10.94,10.94,0,0,1-.43-3.68v-2.28a21.55,21.55,0,0,1,.13-2.49A5.41,5.41,0,0,1,201,102a1.15,1.15,0,0,1,1.07-.69.93.93,0,0,1,.64.26,3.45,3.45,0,0,1,.52.65V96.76h1.28v16.46H203.2v-.75a3,3,0,0,1-.5.66A.88.88,0,0,1,202.08,113.38Zm.32-1.71a.77.77,0,0,0,.39-.11,1.65,1.65,0,0,0,.41-.33v-7.7a2.14,2.14,0,0,0-.38-.36.71.71,0,0,0-.44-.15q-.45,0-.6.72a7.93,7.93,0,0,0-.16,1.74v3.31q0,.81.06,1.47a3.18,3.18,0,0,0,.22,1A.53.53,0,0,0,202.4,111.67Z"/><path class="cls-2" d="M210.13,113.38a1.55,1.55,0,0,1-1.37-.9,5.41,5.41,0,0,1-.59-2.39l1.07-.55a6.31,6.31,0,0,0,.33,1.68c.15.37.37.56.67.56a.57.57,0,0,0,.53-.34,1.89,1.89,0,0,0,.18-.9,3.24,3.24,0,0,0-.13-.92,3.19,3.19,0,0,0-.44-.83l-1.18-1.73a5.25,5.25,0,0,1-.61-1.18,4.65,4.65,0,0,1-.25-1.68,4.8,4.8,0,0,1,.23-1.58,2,2,0,0,1,.62-1,1.39,1.39,0,0,1,2.21.56,5.89,5.89,0,0,1,.5,2.19L211,105a9.05,9.05,0,0,0-.14-1.07,2.07,2.07,0,0,0-.27-.71.5.5,0,0,0-.44-.25.54.54,0,0,0-.5.35,1.87,1.87,0,0,0-.18.85,2.32,2.32,0,0,0,.07.59,2,2,0,0,0,.27.58l1.23,1.91a8.35,8.35,0,0,1,.47.84,5.18,5.18,0,0,1,.37,1,5.75,5.75,0,0,1,.14,1.32,5,5,0,0,1-.24,1.67,2.16,2.16,0,0,1-.67,1A1.63,1.63,0,0,1,210.13,113.38Z"/><path class="cls-2" d="M214.92,113.38a1.47,1.47,0,0,1-1.21-.53,3.15,3.15,0,0,1-.63-1.5,11.92,11.92,0,0,1-.19-2.3v-3.41a11.92,11.92,0,0,1,.19-2.3,3.15,3.15,0,0,1,.63-1.5,1.5,1.5,0,0,1,1.21-.53,1.48,1.48,0,0,1,1.2.53,3.25,3.25,0,0,1,.63,1.5,12.86,12.86,0,0,1,.18,2.3v3.41a12.86,12.86,0,0,1-.18,2.3,3.25,3.25,0,0,1-.63,1.5A1.45,1.45,0,0,1,214.92,113.38Zm0-1.6a.52.52,0,0,0,.52-.37,2.93,2.93,0,0,0,.18-1c0-.4,0-.82,0-1.25v-3.68q0-.67,0-1.26a3,3,0,0,0-.18-1,.52.52,0,0,0-.52-.37.53.53,0,0,0-.53.37,3,3,0,0,0-.19,1q0,.58,0,1.26v3.68c0,.43,0,.85,0,1.25a2.9,2.9,0,0,0,.19,1A.53.53,0,0,0,214.92,111.78Z"/><path class="cls-2" d="M218.2,99.72V97.45h1.28v2.27Zm0,13.5V101.47h1.28v11.75Z"/><path class="cls-2" d="M220.86,113.22V101.47h1.28v1.16a4.49,4.49,0,0,1,.77-.93,1.33,1.33,0,0,1,.92-.39.71.71,0,0,1,.65.37,2.63,2.63,0,0,1,.31.91,7,7,0,0,1,.09,1.12v9.51h-1.29v-8.88a3.59,3.59,0,0,0-.1-1A.44.44,0,0,0,223,103a.71.71,0,0,0-.45.21,4,4,0,0,0-.45.52v9.47Z"/><path class="cls-2" d="M230.48,113.38c-.58,0-1-.36-1.31-1.09a11.21,11.21,0,0,1-.43-3.68v-2.28a21.46,21.46,0,0,1,.14-2.49,5.21,5.21,0,0,1,.49-1.84,1.17,1.17,0,0,1,1.08-.69.93.93,0,0,1,.63.26,3.09,3.09,0,0,1,.52.65V96.76h1.28v16.46H231.6v-.75a2.72,2.72,0,0,1-.5.66A.88.88,0,0,1,230.48,113.38Zm.33-1.71a.74.74,0,0,0,.38-.11,1.49,1.49,0,0,0,.41-.33v-7.7a2.09,2.09,0,0,0-.37-.36.76.76,0,0,0-.45-.15q-.43,0-.6.72a8.67,8.67,0,0,0-.15,1.74v3.31c0,.54,0,1,.05,1.47a3.46,3.46,0,0,0,.22,1A.53.53,0,0,0,230.81,111.67Z"/><path class="cls-2" d="M236.1,113.38a1.52,1.52,0,0,1-1.26-.54,3.26,3.26,0,0,1-.62-1.58,15.68,15.68,0,0,1-.17-2.57V106a15.61,15.61,0,0,1,.18-2.6,3.22,3.22,0,0,1,.63-1.56,1.55,1.55,0,0,1,1.24-.53,1.45,1.45,0,0,1,1.29.61,3.93,3.93,0,0,1,.54,1.76,23.78,23.78,0,0,1,.14,2.75v1h-2.74v2.35a7.07,7.07,0,0,0,.08,1.16,1.36,1.36,0,0,0,.25.66.55.55,0,0,0,.45.22.49.49,0,0,0,.44-.24,1.52,1.52,0,0,0,.2-.67,7.57,7.57,0,0,0,.06-1v-.72h1.24v.45a7.08,7.08,0,0,1-.44,2.79A1.55,1.55,0,0,1,236.1,113.38Zm-.77-7.17h1.48v-1.06c0-.49,0-.9-.05-1.23a1.83,1.83,0,0,0-.2-.75.51.51,0,0,0-.47-.25.55.55,0,0,0-.48.24,1.9,1.9,0,0,0-.22.82c0,.39-.06.92-.06,1.6Z"/><path class="cls-3" d="M243.78,113.22l-2.17-16.46h1.27l1.53,12.13,1.47-12.13h1.23L245,113.22Z"/><path class="cls-3" d="M249.83,113.38a1.49,1.49,0,0,1-1.22-.53,3.36,3.36,0,0,1-.63-1.5,12.86,12.86,0,0,1-.18-2.3v-3.41a12.86,12.86,0,0,1,.18-2.3,3.36,3.36,0,0,1,.63-1.5,1.52,1.52,0,0,1,1.22-.53,1.48,1.48,0,0,1,1.2.53,3.36,3.36,0,0,1,.63,1.5,12.86,12.86,0,0,1,.18,2.3v3.41a12.86,12.86,0,0,1-.18,2.3,3.36,3.36,0,0,1-.63,1.5A1.45,1.45,0,0,1,249.83,113.38Zm0-1.6a.53.53,0,0,0,.52-.37,2.93,2.93,0,0,0,.18-1c0-.4,0-.82,0-1.25v-3.68q0-.67,0-1.26a3,3,0,0,0-.18-1,.56.56,0,0,0-1,0,2.78,2.78,0,0,0-.19,1q0,.58,0,1.26v3.68c0,.43,0,.85,0,1.25a2.67,2.67,0,0,0,.19,1A.53.53,0,0,0,249.83,111.78Z"/><path class="cls-3" d="M254,113.38a.71.71,0,0,1-.63-.36,2.38,2.38,0,0,1-.32-.92A6.86,6.86,0,0,1,253,111v-9.51h1.28v8.86a3.65,3.65,0,0,0,.11,1,.43.43,0,0,0,.44.35.67.67,0,0,0,.45-.21,3,3,0,0,0,.46-.52v-9.47H257v11.75h-1.28v-1.16a4.26,4.26,0,0,1-.77.94A1.37,1.37,0,0,1,254,113.38Z"/><path class="cls-3" d="M259.91,113.38a1.54,1.54,0,0,1-1.37-.9,5.28,5.28,0,0,1-.59-2.39l1.07-.55a6,6,0,0,0,.32,1.68c.15.37.38.56.67.56a.56.56,0,0,0,.53-.34,1.89,1.89,0,0,0,.18-.9,2.92,2.92,0,0,0-.13-.92,3.14,3.14,0,0,0-.43-.83L259,107.06a5.7,5.7,0,0,1-.61-1.18,4.9,4.9,0,0,1-.24-1.68,4.82,4.82,0,0,1,.22-1.58,2.17,2.17,0,0,1,.62-1,1.42,1.42,0,0,1,1-.34,1.37,1.37,0,0,1,1.26.9,5.7,5.7,0,0,1,.5,2.19l-.86.55a8.9,8.9,0,0,0-.15-1.07,2.07,2.07,0,0,0-.26-.71.51.51,0,0,0-.45-.25.54.54,0,0,0-.49.35,1.75,1.75,0,0,0-.19.85,2,2,0,0,0,.08.59,1.79,1.79,0,0,0,.27.58l1.22,1.91a8.39,8.39,0,0,1,.48.84,5.94,5.94,0,0,1,.36,1,5.21,5.21,0,0,1,.15,1.32,4.74,4.74,0,0,1-.25,1.67,2.09,2.09,0,0,1-.67,1A1.58,1.58,0,0,1,259.91,113.38Z"/><path class="cls-2" d="M265.89,109.7l-.4-12.94h1.29l-.43,12.94Zm-.4,3.52V111h1.29v2.24Z"/></g><g id="nom"><path class="cls-4" d="M126.38,38.79H111.8V46h13.06v4.07H111.8v7.41h15v4.06H107.3V34.73h19.08Zm-3.47-10.74-4.66,3.76h-3.89l4-5.68Z"/><path class="cls-4" d="M132.34,34.73h10.95a13.64,13.64,0,0,1,9.9,3.79,12.87,12.87,0,0,1,3.92,9.63,12.86,12.86,0,0,1-3.94,9.64,13.8,13.8,0,0,1-10,3.79H132.34Zm4.5,4.06V57.52h6.56A8.87,8.87,0,0,0,150,54.89a9.11,9.11,0,0,0,2.61-6.7,9.16,9.16,0,0,0-9.35-9.4Z"/><path class="cls-3" d="M126.38,38.79H111.8V46h13.06v4.07H111.8v7.41h15v4.06H107.3V34.73h19.08Zm-3.47-10.74-4.66,3.76h-3.89l4-5.68Z"/><path class="cls-3" d="M132.34,34.73h10.95a13.64,13.64,0,0,1,9.9,3.79,12.87,12.87,0,0,1,3.92,9.63,12.86,12.86,0,0,1-3.94,9.64,13.8,13.8,0,0,1-10,3.79H132.34Zm4.5,4.06V57.52h6.56A8.87,8.87,0,0,0,150,54.89a9.11,9.11,0,0,0,2.61-6.7,9.16,9.16,0,0,0-9.35-9.4Z"/><g id="phare"><path class="cls-3" d="M178.84,61.58H166.51a4.58,4.58,0,0,1,0-1.77c.07-1.17.16-2.34.25-3.51.12-1.54.22-3.08.34-4.61.08-1,.14-2.09.23-3.14.13-1.61.23-3.23.35-4.84s.22-3.05.33-4.57.23-3.1.34-4.65.23-3,.32-4.53c0-.06,0,0,0,0,.16-.73,0-1.29-.81-1.54a.82.82,0,0,1-.51-.83,12,12,0,0,1,0-1.34c0-.33.17-.47.51-.46s.54,0,.81,0a.34.34,0,0,0,.39-.37c0-.25-.06-.42-.36-.43s-.59-.25-.59-.63v-.56c0-.32.13-.54.5-.54s.46-.23.45-.55c0-1,0-2.07,0-3.1a3.74,3.74,0,0,1,2.41-3.27c.76-.21.77-.29.4-1-.26-.5-.1-.9.48-1.13h.48c.6.25.73.59.44,1.17s-.28.73.37.94a3.2,3.2,0,0,1,2.07,1.91,1.27,1.27,0,0,0,.42.65c.21.16.18.42.19.65,0,1,0,2,0,3.05,0,.37,0,.68.52.7a.33.33,0,0,1,.31.31,3.14,3.14,0,0,1,0,1.06c0,.24-.23.27-.43.27-.36,0-.39.23-.39.5s.15.41.44.41.54,0,.81,0a.43.43,0,0,1,.45.44,7,7,0,0,1,0,1.29,1.22,1.22,0,0,1-.74,1c-.65.33-.7.45-.65,1.12.15,1.68.26,3.35.38,5l.33,4.47q.18,2.28.33,4.56l.33,4.47c.12,1.52.23,3,.34,4.57s.22,3.1.34,4.65c-.29-3.67-.18-2.39.28,3.88A.43.43,0,0,1,178.84,61.58Z"/><path class="cls-5" d="M172.79,60.58h-5c-.19,0-.22,0-.2-.18.09-.76.13-1.54.18-2.31.09-1.45.25-2.9.37-4.35,0-.5,0-1,.08-1.51.11-1.12.12-2.25.22-3.37.11-1.31.19-2.61.29-3.92s.18-2.64.28-4,.19-2.61.29-3.91.2-2.58.29-3.87.25-2.6.26-3.91c0-.26.15-.3.33-.28,1.52.14,3,0,4.55.05.23,0,.54-.1.68,0s.07.49.09.74c.16,1.53.19,3.06.38,4.59.06.48,0,1,.08,1.46.13,1.09.13,2.19.22,3.28.11,1.37.2,2.73.29,4.1s.2,2.54.29,3.82.2,2.7.29,4,.19,2.55.28,3.82.2,2.7.31,4a4.69,4.69,0,0,0,.13,1.44c.05.12,0,.18-.19.17C176,60.57,174.38,60.58,172.79,60.58Z"/><path class="cls-5" d="M175.21,23.8h.84c.18,0,.22.07.21.22s-.07.17-.2.17c-.29,0-.68-.16-.85.09s0,.53,0,.81.19.89-.06,1.1-.74,0-1.12.05c-1.18.14-2.36-.12-3.53.06-.26,0-.36-.07-.35-.34,0-.48,0-1,0-1.43,0-.3-.09-.38-.37-.36-.11,0-.23,0-.33,0s-.19-.05-.2-.18,0-.19.19-.2.55.13.67-.07,0-.48,0-.73c0-.91,0-1.82,0-2.73,0-.33.07-.46.45-.46,1.4,0,2.8,0,4.2,0,.18,0,.42-.06.42.23C175.21,21.28,175.21,22.52,175.21,23.8Z"/><path class="cls-5" d="M172.67,26.85h3.78c.13,0,.38-.14.38.17s.07.51-.29.56a.75.75,0,0,0-.55.31,1.33,1.33,0,0,1-1.31.54c-1.5,0-3,0-4.49,0a.59.59,0,0,1-.54-.23,1.55,1.55,0,0,0-.93-.65c-.31-.05-.19-.33-.2-.52s.21-.17.33-.17Z"/><path class="cls-3" d="M173.49,55.94c0,.27.14.69-.07.88s-.6,0-.92,0a.91.91,0,0,0-.33,0c-.22.08-.31,0-.31-.2,0-.51,0-1,0-1.53,0-.19.07-.24.25-.23h.38C173.49,54.92,173.49,54.92,173.49,55.94Z"/><path class="cls-3" d="M173.49,39c0,.95,0,.95-1,.95-.65,0-.65,0-.65-.62,0-.36,0-.71,0-1.07,0-.2,0-.28.26-.26a1.93,1.93,0,0,0,.34,0C173.49,38,173.49,38,173.49,39Z"/><path class="cls-3" d="M171.29,20.55c.83,0,1.64,0,2.44,0,.26,0,.32.05.31.28q0,1.11,0,2.22c0,.26-.1.3-.33.3-.71,0-1.43,0-2.14,0-.18,0-.29,0-.29-.24C171.29,22.24,171.29,21.38,171.29,20.55Z"/></g><path class="cls-3" d="M199.59,34.42a14.47,14.47,0,0,1,5.51,1.09,13.82,13.82,0,0,1,4.64,3.05l-2.63,3.3a10.7,10.7,0,0,0-3.44-2.49,9.35,9.35,0,0,0-4-.92,9.25,9.25,0,0,0-6.77,2.74,9.52,9.52,0,0,0,0,13.43,9.25,9.25,0,0,0,6.77,2.74,10.43,10.43,0,0,0,7.45-3.18l2.67,3A15.56,15.56,0,0,1,205,60.39a14.07,14.07,0,0,1-15.42-2.74,13.09,13.09,0,0,1-4-9.73,12.79,12.79,0,0,1,4.07-9.61A13.89,13.89,0,0,1,199.59,34.42Z"/><path class="cls-3" d="M231.42,55.33H218l-2.56,6.06h-4.7l11.8-26.86h4.62l11.67,26.86H234Zm-1.72-4-5-11.93-5,11.93Z"/><path class="cls-3" d="M242.33,34.53H253q5,0,7.81,2.4a8.5,8.5,0,0,1,2.76,6.77,9.07,9.07,0,0,1-2.76,7.08Q258,53.3,253,53.3h-6.14v8.09h-4.51Zm4.51,4.07V49.23h5.95q6.45,0,6.45-5.41,0-5.22-6.45-5.22Z"/></g></svg>