<svg xmlns="http://www.w3.org/2000/svg" width="204.99" height="75.65" viewBox="0 0 204.99 75.65">
  <g id="logo" transform="translate(0.106 -14.163)">
    <g id="electrocardiogramme" transform="translate(-0.106 19.607)">
      <path id="Tracé_2103" data-name="Tracé 2103" d="M74.876,88.552a2.36,2.36,0,0,1-2.367-2.09L64.888,25.518,52.4,44.005a2.387,2.387,0,0,1-3.929.039L35.4,25.464,29.87,73.224a2.386,2.386,0,0,1-4.664.384L18.148,48.987,14.9,64.52a2.386,2.386,0,0,1-4.311.85L2.184,52.96H-.106V50.02H2.478a2.385,2.385,0,0,1,1.974,1.047l7.839,11.571,3.438-16.445a2.386,2.386,0,0,1,4.629-.169l6.91,24.107,5.375-46.448a2.386,2.386,0,0,1,4.321-1.1l13.452,19.11L63.277,22.65a2.386,2.386,0,0,1,4.345,1.039L74.864,81.6l3.4-28.51a2.386,2.386,0,0,1,2.369-2.1h124.25v2.94H81.126l-3.88,32.526a2.36,2.36,0,0,1-2.362,2.1Zm5.763-34.63h0Z" transform="translate(0.106 -21.569)" fill="#02ad4e"/>
    </g>
    <g id="base_line" data-name="base line" transform="translate(87.158 57.433)">
      <g id="Groupe_1620" data-name="Groupe 1620">
        <path id="Tracé_2104" data-name="Tracé 2104" d="M118.612,85.206V73.03h1.869a1.478,1.478,0,0,1,1.083.4,2.388,2.388,0,0,1,.59,1.15,7.657,7.657,0,0,1,.186,1.819,5.905,5.905,0,0,1-.209,1.669,2.384,2.384,0,0,1-.617,1.089,1.44,1.44,0,0,1-1.023.384h-.828v5.667Zm1.051-6.885h.484a1.339,1.339,0,0,0,.716-.165.94.94,0,0,0,.372-.579,4.712,4.712,0,0,0,.111-1.165,8.521,8.521,0,0,0-.079-1.337.952.952,0,0,0-.331-.647,1.351,1.351,0,0,0-.781-.18h-.492Z" transform="translate(-118.612 -73.03)" fill="#1d1d1b"/>
        <path id="Tracé_2105" data-name="Tracé 2105" d="M124.608,86.425V77.736h1v1.233A2.853,2.853,0,0,1,126.2,77.9a.9.9,0,0,1,.6-.271h.07a.433.433,0,0,1,.088.015v1.774a1.221,1.221,0,0,0-.256-.127.86.86,0,0,0-.293-.053.612.612,0,0,0-.423.173,1.776,1.776,0,0,0-.377.669v6.344Z" transform="translate(-120.201 -74.249)" fill="#1d1d1b"/>
        <path id="Tracé_2106" data-name="Tracé 2106" d="M130.077,86.54a1.191,1.191,0,0,1-.94-.391,2.367,2.367,0,0,1-.488-1.113,8.754,8.754,0,0,1-.143-1.7V80.813a8.765,8.765,0,0,1,.143-1.7A2.364,2.364,0,0,1,129.136,78a1.189,1.189,0,0,1,.94-.391,1.171,1.171,0,0,1,.934.391,2.377,2.377,0,0,1,.484,1.112,8.756,8.756,0,0,1,.145,1.7v2.525a8.745,8.745,0,0,1-.145,1.7,2.38,2.38,0,0,1-.484,1.113A1.173,1.173,0,0,1,130.077,86.54Zm0-1.188a.408.408,0,0,0,.4-.271,2.1,2.1,0,0,0,.14-.713q.023-.444.024-.925V80.722q0-.5-.024-.932a2.169,2.169,0,0,0-.14-.714.409.409,0,0,0-.4-.277.418.418,0,0,0-.409.277,2.071,2.071,0,0,0-.144.714q-.024.437-.024.932v2.721q0,.481.024.925a2.011,2.011,0,0,0,.144.713A.417.417,0,0,0,130.077,85.353Z" transform="translate(-121.233 -74.244)" fill="#1d1d1b"/>
        <path id="Tracé_2107" data-name="Tracé 2107" d="M135.44,86.54a1.2,1.2,0,0,1-1-.429,2.533,2.533,0,0,1-.456-1.211,12.559,12.559,0,0,1-.116-1.819v-2a12.429,12.429,0,0,1,.121-1.871,2.459,2.459,0,0,1,.46-1.188,1.21,1.21,0,0,1,.991-.413,1.257,1.257,0,0,1,.906.308,1.7,1.7,0,0,1,.442.917,7.982,7.982,0,0,1,.121,1.511v.511h-.9v-.526a6.862,6.862,0,0,0-.046-.9.994.994,0,0,0-.168-.481.415.415,0,0,0-.343-.15.43.43,0,0,0-.372.18,1.294,1.294,0,0,0-.173.609q-.042.428-.041,1.165v2.735a5.464,5.464,0,0,0,.129,1.489.477.477,0,0,0,.465.376.4.4,0,0,0,.367-.188,1.242,1.242,0,0,0,.149-.534c.022-.23.032-.491.032-.781v-.706h.9v.6a7.811,7.811,0,0,1-.126,1.5,1.872,1.872,0,0,1-.445.962A1.2,1.2,0,0,1,135.44,86.54Z" transform="translate(-122.654 -74.244)" fill="#1d1d1b"/>
        <path id="Tracé_2108" data-name="Tracé 2108" d="M139.244,85.206V73.03h1v4.39a3.5,3.5,0,0,1,.6-.722,1.089,1.089,0,0,1,.745-.3.544.544,0,0,1,.487.271,1.855,1.855,0,0,1,.243.676,4.982,4.982,0,0,1,.069.827v7.035h-.995V78.637a2.414,2.414,0,0,0-.084-.721.334.334,0,0,0-.344-.256.569.569,0,0,0-.368.165,2.179,2.179,0,0,0-.357.405v6.976Z" transform="translate(-124.078 -73.03)" fill="#1d1d1b"/>
        <path id="Tracé_2109" data-name="Tracé 2109" d="M146.285,86.54a1.221,1.221,0,0,1-.976-.4,2.408,2.408,0,0,1-.479-1.173,11.336,11.336,0,0,1-.135-1.9V81.083a11.067,11.067,0,0,1,.14-1.924A2.339,2.339,0,0,1,145.323,78a1.222,1.222,0,0,1,.962-.391,1.141,1.141,0,0,1,1,.451,2.832,2.832,0,0,1,.423,1.3,17.343,17.343,0,0,1,.1,2.038v.706h-2.12v1.744a4.925,4.925,0,0,0,.06.857,1.044,1.044,0,0,0,.195.488.439.439,0,0,0,.349.158.384.384,0,0,0,.34-.173,1.162,1.162,0,0,0,.158-.5,5.989,5.989,0,0,0,.041-.759V83.4h.967v.332a5.035,5.035,0,0,1-.344,2.058A1.2,1.2,0,0,1,146.285,86.54Zm-.595-5.307h1.143v-.781q0-.541-.037-.91a1.341,1.341,0,0,0-.153-.556.4.4,0,0,0-.368-.187.42.42,0,0,0-.368.18,1.369,1.369,0,0,0-.172.609,11.4,11.4,0,0,0-.046,1.18Z" transform="translate(-125.523 -74.244)" fill="#1d1d1b"/>
        <path id="Tracé_2110" data-name="Tracé 2110" d="M154.265,85.327a1.092,1.092,0,0,1-1.014-.8,7.808,7.808,0,0,1-.334-2.729V80.11a15.424,15.424,0,0,1,.1-1.841,3.72,3.72,0,0,1,.386-1.36.9.9,0,0,1,.832-.512.732.732,0,0,1,.493.2,2.1,2.1,0,0,1,.4.481V73.03h.995V85.206h-.995V84.65a2.017,2.017,0,0,1-.387.489A.7.7,0,0,1,154.265,85.327Zm.251-1.264a.643.643,0,0,0,.3-.082,1.228,1.228,0,0,0,.317-.248v-5.7a1.63,1.63,0,0,0-.289-.263.58.58,0,0,0-.344-.112q-.344,0-.465.534a5.885,5.885,0,0,0-.121,1.285v2.451c0,.4.013.764.041,1.089a2.3,2.3,0,0,0,.173.767A.415.415,0,0,0,154.516,84.063Z" transform="translate(-127.701 -73.03)" fill="#1d1d1b"/>
        <path id="Tracé_2111" data-name="Tracé 2111" d="M160.1,86.54a1.22,1.22,0,0,1-.976-.4,2.4,2.4,0,0,1-.479-1.173,11.343,11.343,0,0,1-.135-1.9V81.083a11.074,11.074,0,0,1,.139-1.924A2.346,2.346,0,0,1,159.135,78a1.224,1.224,0,0,1,.963-.391,1.141,1.141,0,0,1,1,.451,2.824,2.824,0,0,1,.423,1.3,17.343,17.343,0,0,1,.1,2.038v.706H159.5v1.744a5,5,0,0,0,.06.857,1.044,1.044,0,0,0,.2.488.437.437,0,0,0,.349.158.385.385,0,0,0,.34-.173,1.162,1.162,0,0,0,.157-.5,5.976,5.976,0,0,0,.042-.759V83.4h.967v.332a5.049,5.049,0,0,1-.343,2.058A1.2,1.2,0,0,1,160.1,86.54Zm-.6-5.307h1.144v-.781q0-.541-.037-.91a1.33,1.33,0,0,0-.153-.556.4.4,0,0,0-.368-.187.42.42,0,0,0-.368.18,1.38,1.38,0,0,0-.171.609,11.366,11.366,0,0,0-.047,1.18Z" transform="translate(-129.182 -74.244)" fill="#1d1d1b"/>
        <path id="Tracé_2112" data-name="Tracé 2112" d="M168.3,86.54a1.2,1.2,0,0,1-1-.429,2.518,2.518,0,0,1-.456-1.211,12.447,12.447,0,0,1-.117-1.819v-2a12.322,12.322,0,0,1,.121-1.871,2.437,2.437,0,0,1,.461-1.188,1.206,1.206,0,0,1,.989-.413,1.259,1.259,0,0,1,.907.308,1.693,1.693,0,0,1,.441.917,7.916,7.916,0,0,1,.121,1.511v.511h-.9v-.526a6.84,6.84,0,0,0-.047-.9,1,1,0,0,0-.167-.481.417.417,0,0,0-.344-.15.431.431,0,0,0-.372.18,1.3,1.3,0,0,0-.172.609q-.042.428-.042,1.165v2.735a5.454,5.454,0,0,0,.13,1.489.476.476,0,0,0,.465.376.4.4,0,0,0,.368-.188,1.275,1.275,0,0,0,.148-.534c.021-.23.032-.491.032-.781v-.706h.9v.6a7.811,7.811,0,0,1-.126,1.5,1.879,1.879,0,0,1-.446.962A1.2,1.2,0,0,1,168.3,86.54Z" transform="translate(-131.36 -74.244)" fill="#1d1d1b"/>
        <path id="Tracé_2113" data-name="Tracé 2113" d="M172.1,85.206V73.03h1v4.39a3.524,3.524,0,0,1,.6-.722,1.087,1.087,0,0,1,.744-.3.544.544,0,0,1,.488.271,1.829,1.829,0,0,1,.242.676,4.83,4.83,0,0,1,.07.827v7.035h-1V78.637a2.418,2.418,0,0,0-.083-.721.334.334,0,0,0-.344-.256.568.568,0,0,0-.368.165,2.21,2.21,0,0,0-.358.405v6.976Z" transform="translate(-132.785 -73.03)" fill="#1d1d1b"/>
        <path id="Tracé_2114" data-name="Tracé 2114" d="M179.148,86.54a1.219,1.219,0,0,1-.976-.4,2.4,2.4,0,0,1-.479-1.173,11.346,11.346,0,0,1-.135-1.9V81.083a11.074,11.074,0,0,1,.139-1.924A2.346,2.346,0,0,1,178.185,78a1.224,1.224,0,0,1,.963-.391,1.141,1.141,0,0,1,1,.451,2.832,2.832,0,0,1,.423,1.3,17.343,17.343,0,0,1,.1,2.038v.706h-2.12v1.744a4.926,4.926,0,0,0,.06.857,1.044,1.044,0,0,0,.2.488.437.437,0,0,0,.348.158.383.383,0,0,0,.34-.173,1.152,1.152,0,0,0,.158-.5,5.976,5.976,0,0,0,.042-.759V83.4h.967v.332a5.035,5.035,0,0,1-.344,2.058A1.2,1.2,0,0,1,179.148,86.54Zm-.6-5.307H179.7v-.781q0-.541-.037-.91a1.341,1.341,0,0,0-.153-.556.4.4,0,0,0-.368-.187.42.42,0,0,0-.368.18,1.379,1.379,0,0,0-.171.609,11.361,11.361,0,0,0-.047,1.18Z" transform="translate(-134.229 -74.244)" fill="#1d1d1b"/>
        <path id="Tracé_2115" data-name="Tracé 2115" d="M182.743,86.463V85.38l1.646-6.4h-1.477v-1.2h2.547v.873l-1.655,6.6h1.618v1.218Z" transform="translate(-135.603 -74.287)" fill="#1d1d1b"/>
        <path id="Tracé_2116" data-name="Tracé 2116" d="M191.6,85.206,189.915,73.03h.986L192.091,82l1.134-8.974h.958l-1.664,12.176Z" transform="translate(-137.503 -73.03)" fill="#134dbf"/>
        <path id="Tracé_2117" data-name="Tracé 2117" d="M198.014,86.54a1.186,1.186,0,0,1-.939-.391,2.345,2.345,0,0,1-.488-1.113,8.743,8.743,0,0,1-.145-1.7V80.813a8.754,8.754,0,0,1,.145-1.7A2.343,2.343,0,0,1,197.075,78a1.318,1.318,0,0,1,1.874,0,2.392,2.392,0,0,1,.483,1.112,8.759,8.759,0,0,1,.144,1.7v2.525a8.748,8.748,0,0,1-.144,1.7,2.4,2.4,0,0,1-.483,1.113A1.177,1.177,0,0,1,198.014,86.54Zm0-1.188a.408.408,0,0,0,.4-.271,2.122,2.122,0,0,0,.14-.713q.023-.444.024-.925V80.722q0-.5-.024-.932a2.188,2.188,0,0,0-.14-.714.41.41,0,0,0-.4-.277.419.419,0,0,0-.409.277,2.123,2.123,0,0,0-.144.714q-.022.437-.023.932v2.721q0,.481.023.925a2.06,2.06,0,0,0,.144.713A.417.417,0,0,0,198.014,85.353Z" transform="translate(-139.233 -74.244)" fill="#134dbf"/>
        <path id="Tracé_2118" data-name="Tracé 2118" d="M202.7,86.584a.558.558,0,0,1-.493-.271,1.8,1.8,0,0,1-.246-.677,4.892,4.892,0,0,1-.069-.827V77.774h.995v6.554a2.512,2.512,0,0,0,.083.73.336.336,0,0,0,.344.262.542.542,0,0,0,.349-.157,2.4,2.4,0,0,0,.348-.383V77.774h1v8.689h-1v-.857a3.174,3.174,0,0,1-.59.692A1.079,1.079,0,0,1,202.7,86.584Z" transform="translate(-140.677 -74.287)" fill="#134dbf"/>
        <path id="Tracé_2119" data-name="Tracé 2119" d="M208.659,86.54a1.2,1.2,0,0,1-1.059-.669,3.792,3.792,0,0,1-.456-1.767l.828-.405a4.306,4.306,0,0,0,.25,1.239.568.568,0,0,0,.521.414.446.446,0,0,0,.409-.248,1.374,1.374,0,0,0,.139-.669,2.092,2.092,0,0,0-.1-.677,2.291,2.291,0,0,0-.334-.616l-.92-1.278a4.081,4.081,0,0,1-.47-.872,4.092,4.092,0,0,1-.018-2.412,1.582,1.582,0,0,1,.483-.722,1.142,1.142,0,0,1,.73-.248,1.064,1.064,0,0,1,.981.669,3.974,3.974,0,0,1,.385,1.616l-.669.405a6.1,6.1,0,0,0-.112-.789,1.485,1.485,0,0,0-.2-.526.4.4,0,0,0-.344-.187.433.433,0,0,0-.387.262,1.285,1.285,0,0,0-.143.624,1.64,1.64,0,0,0,.06.443,1.391,1.391,0,0,0,.209.429l.948,1.413a5.934,5.934,0,0,1,.368.617,3.575,3.575,0,0,1,.284.751,3.811,3.811,0,0,1,.112.977,3.549,3.549,0,0,1-.185,1.233,1.6,1.6,0,0,1-.521.745A1.278,1.278,0,0,1,208.659,86.54Z" transform="translate(-142.068 -74.244)" fill="#134dbf"/>
        <path id="Tracé_2120" data-name="Tracé 2120" d="M212.221,90.94l-.158-.691a.922.922,0,0,0,.4-.474,2.06,2.06,0,0,0,.143-.8h-.53V87.243H213.1v1.7a3.131,3.131,0,0,1-.214,1.27A1.556,1.556,0,0,1,212.221,90.94Z" transform="translate(-143.371 -76.796)" fill="#1d1d1b"/>
      </g>
      <g id="Groupe_1621" data-name="Groupe 1621" transform="translate(35.121 17.336)">
        <path id="Tracé_2121" data-name="Tracé 2121" d="M168.35,108.954a1.478,1.478,0,0,1-1.156-.478,2.887,2.887,0,0,1-.617-1.366,10.318,10.318,0,0,1-.185-2.084v-4.587a9.7,9.7,0,0,1,.189-2.054,2.763,2.763,0,0,1,.617-1.315,1.5,1.5,0,0,1,1.152-.456,1.477,1.477,0,0,1,1.146.464,2.824,2.824,0,0,1,.613,1.314,9.547,9.547,0,0,1,.19,2.046v4.6a9.9,9.9,0,0,1-.19,2.062,3.009,3.009,0,0,1-.613,1.366A1.441,1.441,0,0,1,168.35,108.954Zm0-1.329a.7.7,0,0,0,.6-.276,1.692,1.692,0,0,0,.273-.777,8.384,8.384,0,0,0,.071-1.173v-5.3a8.065,8.065,0,0,0-.071-1.158,1.565,1.565,0,0,0-.273-.747.711.711,0,0,0-.6-.262.724.724,0,0,0-.6.262,1.55,1.55,0,0,0-.278.747,8.2,8.2,0,0,0-.07,1.158v5.3a8.521,8.521,0,0,0,.07,1.173,1.674,1.674,0,0,0,.278.777A.708.708,0,0,0,168.35,107.625Z" transform="translate(-166.392 -96.615)" fill="#1d1d1b"/>
        <path id="Tracé_2122" data-name="Tracé 2122" d="M172.932,110.065V101.43h.943v.851a3.428,3.428,0,0,1,.565-.687.983.983,0,0,1,.679-.283.521.521,0,0,1,.472.268,1.876,1.876,0,0,1,.229.673,5.059,5.059,0,0,1,.066.821v6.992h-.944v-6.528a2.554,2.554,0,0,0-.079-.717.321.321,0,0,0-.327-.254.508.508,0,0,0-.331.156,2.394,2.394,0,0,0-.331.381v6.962Z" transform="translate(-168.125 -97.859)" fill="#1d1d1b"/>
        <path id="Tracé_2123" data-name="Tracé 2123" d="M180.947,112.9V101.43h.943v.687a2.24,2.24,0,0,1,.406-.567.769.769,0,0,1,.565-.239.723.723,0,0,1,.631.351,2.566,2.566,0,0,1,.348.881,7.424,7.424,0,0,1,.15,1.075q.035.546.035.934v2.09a13.384,13.384,0,0,1-.106,1.726,3.7,3.7,0,0,1-.384,1.314.859.859,0,0,1-.781.5.641.641,0,0,1-.485-.232,2.876,2.876,0,0,1-.38-.53v3.48Zm1.623-3.974q.247,0,.353-.306a3.108,3.108,0,0,0,.132-.829c.018-.349.027-.732.027-1.151v-2.09q0-.539-.035-.994a2.356,2.356,0,0,0-.15-.725.381.381,0,0,0-.362-.268.551.551,0,0,0-.352.134,1.5,1.5,0,0,0-.292.314v5.527a1.318,1.318,0,0,0,.3.276A.665.665,0,0,0,182.57,108.929Z" transform="translate(-170.248 -97.859)" fill="#1d1d1b"/>
        <path id="Tracé_2124" data-name="Tracé 2124" d="M186.335,110.07v-8.635h.944v1.225a2.857,2.857,0,0,1,.565-1.061.826.826,0,0,1,.564-.268h.066a.339.339,0,0,1,.084.015v1.763a1.126,1.126,0,0,0-.243-.127.779.779,0,0,0-.278-.052.571.571,0,0,0-.4.172,1.783,1.783,0,0,0-.357.665v6.3Z" transform="translate(-171.676 -97.864)" fill="#1d1d1b"/>
        <path id="Tracé_2125" data-name="Tracé 2125" d="M191.527,110.184a1.13,1.13,0,0,1-.926-.4,2.452,2.452,0,0,1-.454-1.165,11.781,11.781,0,0,1-.128-1.89v-1.972a11.488,11.488,0,0,1,.132-1.913,2.388,2.388,0,0,1,.463-1.15,1.133,1.133,0,0,1,.913-.388,1.066,1.066,0,0,1,.948.448,2.913,2.913,0,0,1,.4,1.292,18.056,18.056,0,0,1,.1,2.024v.7h-2.011v1.733a5.129,5.129,0,0,0,.057.852,1.058,1.058,0,0,0,.185.485.4.4,0,0,0,.331.157.358.358,0,0,0,.322-.171,1.2,1.2,0,0,0,.15-.493,6.234,6.234,0,0,0,.04-.754v-.523h.917v.329a5.224,5.224,0,0,1-.326,2.046A1.132,1.132,0,0,1,191.527,110.184Zm-.565-5.273h1.085v-.777q0-.537-.036-.9a1.364,1.364,0,0,0-.145-.553.376.376,0,0,0-.348-.187.391.391,0,0,0-.348.179,1.41,1.41,0,0,0-.163.6c-.029.284-.044.675-.044,1.173Z" transform="translate(-172.652 -97.859)" fill="#1d1d1b"/>
        <path id="Tracé_2126" data-name="Tracé 2126" d="M195.2,110.065V101.43h.943v.851a3.455,3.455,0,0,1,.565-.687.982.982,0,0,1,.679-.283.519.519,0,0,1,.471.268,1.875,1.875,0,0,1,.23.673,5.142,5.142,0,0,1,.066.821v6.992h-.945v-6.528a2.555,2.555,0,0,0-.079-.717.32.32,0,0,0-.326-.254.507.507,0,0,0-.331.156,2.4,2.4,0,0,0-.332.381v6.962Z" transform="translate(-174.025 -97.859)" fill="#1d1d1b"/>
        <path id="Tracé_2127" data-name="Tracé 2127" d="M201.618,108.978q-.644,0-.961-.8a8.116,8.116,0,0,1-.318-2.712v-1.673a15.886,15.886,0,0,1,.1-1.83,3.86,3.86,0,0,1,.366-1.353.85.85,0,0,1,.789-.507.679.679,0,0,1,.468.193,2.113,2.113,0,0,1,.379.479V96.758h.944v12.1h-.944v-.553a2,2,0,0,1-.366.485A.64.64,0,0,1,201.618,108.978Zm.238-1.255a.587.587,0,0,0,.282-.082,1.18,1.18,0,0,0,.3-.246v-5.663a1.608,1.608,0,0,0-.273-.261.532.532,0,0,0-.326-.112q-.326,0-.441.53a6.133,6.133,0,0,0-.115,1.278V105.6q0,.6.04,1.083a2.374,2.374,0,0,0,.162.762A.4.4,0,0,0,201.856,107.723Z" transform="translate(-175.386 -96.653)" fill="#1d1d1b"/>
        <path id="Tracé_2128" data-name="Tracé 2128" d="M209.613,110.184a1.132,1.132,0,0,1-1.006-.664,3.923,3.923,0,0,1-.432-1.755l.785-.4a4.463,4.463,0,0,0,.238,1.233c.112.274.276.41.494.41a.419.419,0,0,0,.388-.246,1.408,1.408,0,0,0,.132-.664,2.175,2.175,0,0,0-.1-.673,2.338,2.338,0,0,0-.318-.612l-.873-1.269a4.127,4.127,0,0,1-.445-.867,4.267,4.267,0,0,1-.018-2.4,1.578,1.578,0,0,1,.459-.717,1.046,1.046,0,0,1,.692-.246,1.01,1.01,0,0,1,.931.664,4.142,4.142,0,0,1,.367,1.605l-.636.4a6.277,6.277,0,0,0-.106-.784,1.527,1.527,0,0,0-.194-.523.376.376,0,0,0-.326-.187.41.41,0,0,0-.366.261,1.325,1.325,0,0,0-.137.62,1.716,1.716,0,0,0,.057.441,1.409,1.409,0,0,0,.2.426l.9,1.4a6.062,6.062,0,0,1,.348.612,3.8,3.8,0,0,1,.269.748,3.974,3.974,0,0,1,.106.97,3.671,3.671,0,0,1-.176,1.225,1.581,1.581,0,0,1-.494.739A1.172,1.172,0,0,1,209.613,110.184Z" transform="translate(-177.462 -97.859)" fill="#1d1d1b"/>
        <path id="Tracé_2129" data-name="Tracé 2129" d="M214.381,110.184a1.1,1.1,0,0,1-.891-.388,2.4,2.4,0,0,1-.463-1.106,9.123,9.123,0,0,1-.136-1.688v-2.51a9.123,9.123,0,0,1,.136-1.688,2.393,2.393,0,0,1,.463-1.106,1.1,1.1,0,0,1,.891-.388,1.086,1.086,0,0,1,.886.388,2.423,2.423,0,0,1,.459,1.106,9.113,9.113,0,0,1,.137,1.688V107a9.113,9.113,0,0,1-.137,1.688,2.427,2.427,0,0,1-.459,1.106A1.089,1.089,0,0,1,214.381,110.184Zm0-1.181a.388.388,0,0,0,.384-.268,2.173,2.173,0,0,0,.132-.71c.015-.293.022-.6.022-.919v-2.7c0-.329-.007-.638-.022-.927a2.229,2.229,0,0,0-.132-.709.389.389,0,0,0-.384-.276.4.4,0,0,0-.387.276,2.159,2.159,0,0,0-.137.709c-.014.289-.022.6-.022.927v2.7c0,.32.008.626.022.919a2.1,2.1,0,0,0,.137.71A.394.394,0,0,0,214.381,109Z" transform="translate(-178.712 -97.859)" fill="#1d1d1b"/>
        <path id="Tracé_2130" data-name="Tracé 2130" d="M218.2,99.122V97.449h.944v1.673Zm0,9.92v-8.635h.944v8.635Z" transform="translate(-180.117 -96.836)" fill="#1d1d1b"/>
        <path id="Tracé_2131" data-name="Tracé 2131" d="M220.858,110.065V101.43h.944v.851a3.426,3.426,0,0,1,.565-.687.982.982,0,0,1,.679-.283.521.521,0,0,1,.472.268,1.875,1.875,0,0,1,.229.673,5.059,5.059,0,0,1,.066.821v6.992h-.944v-6.528a2.522,2.522,0,0,0-.079-.717.32.32,0,0,0-.326-.254.507.507,0,0,0-.331.156,2.393,2.393,0,0,0-.331.381v6.962Z" transform="translate(-180.822 -97.859)" fill="#1d1d1b"/>
        <path id="Tracé_2132" data-name="Tracé 2132" d="M230.021,108.978q-.644,0-.961-.8a8.11,8.11,0,0,1-.318-2.712v-1.673a15.886,15.886,0,0,1,.1-1.83,3.86,3.86,0,0,1,.366-1.353.851.851,0,0,1,.789-.507.676.676,0,0,1,.468.193,2.136,2.136,0,0,1,.379.479V96.758h.944v12.1h-.944v-.553a2.042,2.042,0,0,1-.366.485A.643.643,0,0,1,230.021,108.978Zm.239-1.255a.583.583,0,0,0,.282-.082,1.2,1.2,0,0,0,.3-.246v-5.663a1.665,1.665,0,0,0-.273-.261.534.534,0,0,0-.327-.112q-.326,0-.44.53a6.079,6.079,0,0,0-.115,1.278V105.6q0,.6.04,1.083a2.352,2.352,0,0,0,.163.762A.4.4,0,0,0,230.26,107.723Z" transform="translate(-182.911 -96.653)" fill="#1d1d1b"/>
        <path id="Tracé_2133" data-name="Tracé 2133" d="M235.555,110.184a1.133,1.133,0,0,1-.927-.4,2.445,2.445,0,0,1-.454-1.165,11.687,11.687,0,0,1-.129-1.89v-1.972a11.4,11.4,0,0,1,.133-1.913,2.4,2.4,0,0,1,.462-1.15,1.134,1.134,0,0,1,.914-.388,1.067,1.067,0,0,1,.948.448,2.923,2.923,0,0,1,.4,1.292,18.256,18.256,0,0,1,.1,2.024v.7H234.99v1.733a5.127,5.127,0,0,0,.057.852,1.058,1.058,0,0,0,.185.485.405.405,0,0,0,.331.157.357.357,0,0,0,.322-.171,1.189,1.189,0,0,0,.15-.493,6.22,6.22,0,0,0,.04-.754v-.523h.917v.329a5.222,5.222,0,0,1-.327,2.046A1.132,1.132,0,0,1,235.555,110.184Zm-.565-5.273h1.086v-.777q0-.537-.036-.9a1.376,1.376,0,0,0-.145-.553.377.377,0,0,0-.349-.187.392.392,0,0,0-.348.179,1.411,1.411,0,0,0-.162.6c-.029.284-.045.675-.045,1.173Z" transform="translate(-184.317 -97.859)" fill="#1d1d1b"/>
        <path id="Tracé_2134" data-name="Tracé 2134" d="M243.2,108.858l-1.6-12.1h.935l1.129,8.918,1.076-8.918h.909l-1.579,12.1Z" transform="translate(-186.32 -96.653)" fill="#134dbf"/>
        <path id="Tracé_2135" data-name="Tracé 2135" d="M249.288,110.184a1.1,1.1,0,0,1-.891-.388,2.4,2.4,0,0,1-.463-1.106A9.124,9.124,0,0,1,247.8,107v-2.51a9.124,9.124,0,0,1,.136-1.688,2.393,2.393,0,0,1,.463-1.106,1.1,1.1,0,0,1,.891-.388,1.086,1.086,0,0,1,.886.388,2.423,2.423,0,0,1,.459,1.106,9.112,9.112,0,0,1,.137,1.688V107a9.112,9.112,0,0,1-.137,1.688,2.427,2.427,0,0,1-.459,1.106A1.089,1.089,0,0,1,249.288,110.184Zm0-1.181a.39.39,0,0,0,.384-.268,2.195,2.195,0,0,0,.132-.71q.023-.44.023-.919v-2.7q0-.494-.023-.927a2.251,2.251,0,0,0-.132-.709.391.391,0,0,0-.384-.276.4.4,0,0,0-.387.276,2.158,2.158,0,0,0-.137.709c-.014.289-.022.6-.022.927v2.7c0,.32.008.626.022.919a2.1,2.1,0,0,0,.137.71A.394.394,0,0,0,249.288,109Z" transform="translate(-187.96 -97.859)" fill="#134dbf"/>
        <path id="Tracé_2136" data-name="Tracé 2136" d="M253.736,110.227a.523.523,0,0,1-.467-.268,1.813,1.813,0,0,1-.233-.673,4.993,4.993,0,0,1-.067-.822v-6.991h.944v6.513a2.593,2.593,0,0,0,.079.724.322.322,0,0,0,.326.262.5.5,0,0,0,.331-.157,2.357,2.357,0,0,0,.331-.381v-6.961h.944v8.635h-.944v-.851a3.115,3.115,0,0,1-.56.687A1,1,0,0,1,253.736,110.227Z" transform="translate(-189.33 -97.902)" fill="#134dbf"/>
        <path id="Tracé_2137" data-name="Tracé 2137" d="M259.387,110.184a1.134,1.134,0,0,1-1.006-.664,3.923,3.923,0,0,1-.432-1.755l.786-.4a4.409,4.409,0,0,0,.238,1.233c.111.274.276.41.494.41a.418.418,0,0,0,.387-.246,1.407,1.407,0,0,0,.133-.664,2.175,2.175,0,0,0-.1-.673,2.365,2.365,0,0,0-.318-.612l-.873-1.269a4.1,4.1,0,0,1-.446-.867,4.258,4.258,0,0,1-.017-2.4,1.566,1.566,0,0,1,.459-.717,1.044,1.044,0,0,1,.692-.246,1.01,1.01,0,0,1,.931.664,4.129,4.129,0,0,1,.366,1.605l-.635.4a6.272,6.272,0,0,0-.107-.784,1.5,1.5,0,0,0-.194-.523.375.375,0,0,0-.326-.187.41.41,0,0,0-.366.261,1.325,1.325,0,0,0-.136.62,1.686,1.686,0,0,0,.057.441,1.39,1.39,0,0,0,.2.426l.9,1.4a6.054,6.054,0,0,1,.348.612,3.8,3.8,0,0,1,.27.748,4.014,4.014,0,0,1,.105.97,3.671,3.671,0,0,1-.176,1.225,1.576,1.576,0,0,1-.494.739A1.172,1.172,0,0,1,259.387,110.184Z" transform="translate(-190.65 -97.859)" fill="#134dbf"/>
        <path id="Tracé_2138" data-name="Tracé 2138" d="M265.786,106.274l-.3-9.516h.953l-.318,9.516Zm-.3,2.584v-1.644h.953v1.644Z" transform="translate(-192.646 -96.653)" fill="#1d1d1b"/>
      </g>
    </g>
    <g id="nom" transform="translate(78.843 14.163)">
      <g id="Groupe_1624" data-name="Groupe 1624" transform="translate(0 8.796)">
        <g id="Groupe_1622" data-name="Groupe 1622">
          <path id="Tracé_2139" data-name="Tracé 2139" d="M121.327,35.438H110.611v5.33H120.2v2.989h-9.593V49.2h11.053v2.989H107.3V32.448h14.027Zm-2.554-7.9L115.351,30.3h-2.862l2.974-4.174Z" transform="translate(-107.3 -26.13)" fill="#010202"/>
          <path id="Tracé_2140" data-name="Tracé 2140" d="M132.336,34.725h8.052a10.021,10.021,0,0,1,7.279,2.792,9.444,9.444,0,0,1,2.876,7.079,9.424,9.424,0,0,1-2.889,7.079,10.144,10.144,0,0,1-7.351,2.792h-7.967Zm3.311,2.99V51.478h4.825a6.509,6.509,0,0,0,4.811-1.932,7.224,7.224,0,0,0-.056-9.872,6.679,6.679,0,0,0-4.895-1.96Z" transform="translate(-113.933 -28.407)" fill="#010202"/>
        </g>
        <g id="Groupe_1623" data-name="Groupe 1623">
          <path id="Tracé_2141" data-name="Tracé 2141" d="M121.327,35.438H110.611v5.33H120.2v2.989h-9.593V49.2h11.053v2.989H107.3V32.448h14.027Zm-2.554-7.9L115.351,30.3h-2.862l2.974-4.174Z" transform="translate(-107.3 -26.13)" fill="#134dbf"/>
          <path id="Tracé_2142" data-name="Tracé 2142" d="M132.336,34.725h8.052a10.021,10.021,0,0,1,7.279,2.792,9.444,9.444,0,0,1,2.876,7.079,9.424,9.424,0,0,1-2.889,7.079,10.144,10.144,0,0,1-7.351,2.792h-7.967Zm3.311,2.99V51.478h4.825a6.509,6.509,0,0,0,4.811-1.932,7.224,7.224,0,0,0-.056-9.872,6.679,6.679,0,0,0-4.895-1.96Z" transform="translate(-113.933 -28.407)" fill="#134dbf"/>
        </g>
      </g>
      <g id="phare" transform="translate(43.448)">
        <path id="Tracé_2143" data-name="Tracé 2143" d="M175.546,49.02H166.48a3.389,3.389,0,0,1,0-1.308c.047-.859.115-1.718.181-2.576.086-1.13.161-2.26.251-3.39.061-.768.1-1.538.166-2.306.1-1.186.175-2.373.262-3.559.082-1.118.157-2.238.237-3.356.082-1.142.171-2.282.251-3.424.078-1.108.173-2.214.235-3.322,0-.046-.007.01,0-.034.116-.534.029-.944-.6-1.131A.626.626,0,0,1,167.09,24c-.024-.329-.012-.658-.007-.986.005-.242.126-.345.376-.336.2.008.4,0,.6-.007a.249.249,0,0,0,.282-.272c.006-.183-.041-.313-.264-.316-.314,0-.429-.185-.431-.465,0-.136,0-.272,0-.409,0-.237.1-.4.365-.4.293,0,.338-.167.337-.4-.006-.76-.04-1.522.007-2.279a2.736,2.736,0,0,1,1.766-2.4c.564-.156.571-.215.3-.734-.2-.37-.073-.659.351-.828h.352c.445.179.54.431.323.859-.232.455-.2.534.271.69a2.343,2.343,0,0,1,1.522,1.4.968.968,0,0,0,.312.479c.158.115.135.3.136.473,0,.748.008,1.5,0,2.245,0,.275.015.5.382.516a.242.242,0,0,1,.228.226,2.469,2.469,0,0,1,0,.778c-.029.177-.166.2-.315.2-.268,0-.287.17-.289.368,0,.218.107.3.323.3.2,0,.4,0,.6.012a.316.316,0,0,1,.333.323,5.269,5.269,0,0,1-.01.951.9.9,0,0,1-.541.706c-.48.241-.52.33-.477.823.107,1.23.184,2.462.275,3.693.08,1.1.165,2.19.247,3.286q.125,1.677.242,3.355c.075,1.1.159,2.192.24,3.287q.126,1.678.247,3.356c.082,1.141.162,2.282.251,3.422-.214-2.7-.132-1.76.2,2.847A.327.327,0,0,1,175.546,49.02Z" transform="translate(-166.409 -14.163)" fill="#134dbf"/>
        <path id="Tracé_2144" data-name="Tracé 2144" d="M171.409,52.219c-1.228,0-2.457-.005-3.685.008-.137,0-.16-.034-.148-.132.069-.565.1-1.132.133-1.7.071-1.068.187-2.133.271-3.2.029-.368.027-.737.063-1.107.082-.825.085-1.657.157-2.483.085-.958.144-1.917.213-2.876s.137-1.941.211-2.911.14-1.917.212-2.876.146-1.894.209-2.842.185-1.915.2-2.877c0-.193.11-.221.238-.209,1.115.1,2.232-.02,3.347.041.17.01.394-.076.5,0,.16.117.047.357.066.542.118,1.122.136,2.25.277,3.37.045.354.021.713.062,1.073.09.8.093,1.611.158,2.415.08,1,.146,2.008.218,3.012.067.936.142,1.872.207,2.809.069.993.148,1.985.215,2.978.064.936.138,1.872.207,2.809.073.992.146,1.985.224,2.977a3.564,3.564,0,0,0,.1,1.056c.034.089-.009.131-.146.129C173.749,52.213,172.579,52.219,171.409,52.219Z" transform="translate(-166.717 -18.097)" fill="#fff"/>
        <path id="Tracé_2145" data-name="Tracé 2145" d="M173.629,22.739c.2,0,.412.006.622,0,.128-.005.157.049.154.161s-.049.12-.151.123c-.213.008-.5-.121-.62.063-.1.143-.021.4-.018.6,0,.279.139.652-.044.806-.162.137-.544.008-.823.04-.864.1-1.731-.092-2.594.04-.187.029-.262-.052-.254-.246.016-.351-.012-.7.011-1.055.014-.218-.066-.281-.271-.259-.081.009-.165-.007-.245,0-.115.016-.14-.033-.141-.131s.026-.139.136-.147c.169-.012.405.092.49-.054s.024-.353.024-.534c0-.669.01-1.339-.005-2.007-.005-.243.054-.34.329-.335,1.03.015,2.06,0,3.09.007.132,0,.309-.049.309.169C173.63,20.89,173.629,21.8,173.629,22.739Z" transform="translate(-167.163 -15.658)" fill="#fff"/>
        <path id="Tracé_2146" data-name="Tracé 2146" d="M171.569,26.846c.925,0,1.849,0,2.773.005.1,0,.282-.1.284.126,0,.171.049.372-.213.409a.556.556,0,0,0-.4.232.986.986,0,0,1-.968.393c-1.1-.025-2.2-.01-3.3-.007a.43.43,0,0,1-.4-.166,1.129,1.129,0,0,0-.681-.479c-.228-.041-.143-.24-.151-.384-.012-.2.154-.127.248-.128C169.7,26.844,170.633,26.846,171.569,26.846Z" transform="translate(-166.964 -17.519)" fill="#fff"/>
        <path id="Tracé_2147" data-name="Tracé 2147" d="M173.054,55.669c-.023.2.106.506-.05.645-.126.113-.443.027-.674.029a.765.765,0,0,0-.243.006c-.165.061-.229.018-.229-.148,0-.373.007-.748,0-1.121,0-.138.051-.178.183-.167.093.007.187,0,.28,0C173.054,54.914,173.054,54.914,173.054,55.669Z" transform="translate(-167.852 -24.959)" fill="#134dbf"/>
        <path id="Tracé_2148" data-name="Tracé 2148" d="M173.054,38.7c0,.7,0,.7-.72.7-.476,0-.476,0-.476-.459,0-.261.009-.523,0-.783-.007-.148.041-.208.2-.19a2.1,2.1,0,0,0,.245,0C173.054,37.964,173.054,37.964,173.054,38.7Z" transform="translate(-167.852 -20.468)" fill="#134dbf"/>
        <path id="Tracé_2149" data-name="Tracé 2149" d="M171.286,20.551c.615,0,1.2.014,1.794-.008.193-.007.234.032.231.206-.009.542-.012,1.086,0,1.627,0,.19-.072.223-.244.221-.525-.009-1.05-.006-1.575,0-.134,0-.213-.01-.21-.176C171.291,21.789,171.286,21.157,171.286,20.551Z" transform="translate(-167.7 -15.853)" fill="#134dbf"/>
      </g>
      <g id="Groupe_1625" data-name="Groupe 1625" transform="translate(57.514 14.889)">
        <path id="Tracé_2150" data-name="Tracé 2150" d="M195.868,34.418a10.675,10.675,0,0,1,4.053.8,10.115,10.115,0,0,1,3.408,2.242l-1.935,2.426a7.945,7.945,0,0,0-2.525-1.833,6.938,6.938,0,0,0-2.945-.677,6.8,6.8,0,0,0-4.979,2.017,7,7,0,0,0,0,9.871,6.8,6.8,0,0,0,4.979,2.016,7.656,7.656,0,0,0,5.47-2.34l1.963,2.2a11.46,11.46,0,0,1-3.534,2.37,10.162,10.162,0,0,1-4.069.874,9.966,9.966,0,0,1-7.265-2.891,9.621,9.621,0,0,1-2.945-7.15,9.394,9.394,0,0,1,2.987-7.065A10.2,10.2,0,0,1,195.868,34.418Z" transform="translate(-185.544 -34.418)" fill="#134dbf"/>
        <path id="Tracé_2151" data-name="Tracé 2151" d="M225.927,49.82h-9.9l-1.879,4.456h-3.451l8.669-19.743h3.394l8.585,19.743h-3.535Zm-1.263-2.962-3.7-8.771-3.7,8.771Z" transform="translate(-192.207 -34.448)" fill="#134dbf"/>
        <path id="Tracé_2152" data-name="Tracé 2152" d="M242.333,34.534h7.827A8.492,8.492,0,0,1,255.9,36.3a6.232,6.232,0,0,1,2.034,4.978,6.668,6.668,0,0,1-2.034,5.2,8.229,8.229,0,0,1-5.737,1.847h-4.516v5.952h-3.311Zm3.311,2.989v7.813h4.377q4.74,0,4.74-3.977,0-3.835-4.74-3.836Z" transform="translate(-200.59 -34.449)" fill="#134dbf"/>
      </g>
    </g>
  </g>
</svg>
