<svg id="Calque_1" data-name="Calque 1" xmlns="http://www.w3.org/2000/svg" viewBox="0 0 141.73 141.73"><defs><style>.cls-1{fill:#134dbf;}.cls-2{fill:none;stroke:#fff;stroke-miterlimit:10;stroke-width:8px;}</style></defs><rect class="cls-1" width="142" height="142"/><path id="electrocardiogramme" class="cls-2" d="M-14.78,65.31h12.5a1.43,1.43,0,0,1,1.18.62L12.25,85.64a1.42,1.42,0,0,0,2.57-.51l5.77-27.61a1.43,1.43,0,0,1,2.77-.1l12,41.7a1.43,1.43,0,0,0,2.79-.23L47,22.26a1.42,1.42,0,0,1,2.58-.65L71.22,52.39a1.43,1.43,0,0,0,2.35,0L94.3,21.67a1.43,1.43,0,0,1,2.6.62l12.15,97.19a1.43,1.43,0,0,0,2.83,0L118,68.06a1.44,1.44,0,0,1,1.43-1.26l45.07.09"/></svg>