<svg xmlns="http://www.w3.org/2000/svg" viewBox="0 0 107.72 107.72"><defs><style>.cls-1{fill:#134dbf;}.cls-2{fill:#fff;}</style></defs><g id="Calque_2" data-name="Calque 2"><g id="Calque_1-2" data-name="Calque 1"><path class="cls-1" d="M107.71,53.94c.44,28.85-23.9,54.47-55.13,53.76A53.86,53.86,0,1,1,55.38,0C84.94.8,108.2,25.53,107.71,53.94Z"/><path class="cls-1" d="M53.84,100.06A46.23,46.23,0,1,1,54.62,7.6c24.89.29,45.65,21.15,45.59,46.35A46.3,46.3,0,0,1,53.84,100.06Z"/><path class="cls-2" d="M38.22,34.45a3.8,3.8,0,0,1,3,1.32c3.87,3.9,7.81,7.74,11.64,11.69.9.93,1.33.8,2.17-.05Q65.6,36.72,76.29,26.1c2.31-2.3,5.82-1.45,6.6,1.58a3.49,3.49,0,0,1-1,3.52Q69.24,43.93,56.48,56.63a3.63,3.63,0,0,1-5.18,0q-7.95-7.86-15.81-15.8a3.53,3.53,0,0,1-.68-4.2A3.57,3.57,0,0,1,38.22,34.45Z"/><path class="cls-2" d="M16.59,56.39a15.12,15.12,0,0,1-2,0,2.42,2.42,0,0,1-2.18-2.54,2.39,2.39,0,0,1,2.11-2.48,14.62,14.62,0,0,1,4.28,0,2.51,2.51,0,0,1-.05,5,18.88,18.88,0,0,1-2.13.13Z"/><path class="cls-2" d="M91.09,56.5a18.74,18.74,0,0,1-2.18-.17,2.52,2.52,0,0,1,0-4.95,14.05,14.05,0,0,1,4.39,0,2.45,2.45,0,0,1,2.11,2.5,2.47,2.47,0,0,1-2.15,2.47A21.54,21.54,0,0,1,91.09,56.5Z"/><path class="cls-2" d="M56.44,16.66c0,.59,0,1.19,0,1.78a2.44,2.44,0,0,1-2.53,2.45,2.38,2.38,0,0,1-2.52-2.43c0-1.22,0-2.46,0-3.68A2.48,2.48,0,0,1,54,12.35a2.51,2.51,0,0,1,2.48,2.41C56.47,15.39,56.44,16,56.44,16.66Z"/><path class="cls-2" d="M51.38,91c0-.59,0-1.19,0-1.78a2.53,2.53,0,0,1,5,0q.06,1.78,0,3.57a2.53,2.53,0,1,1-5,0C51.36,92.22,51.38,91.63,51.38,91Z"/></g></g></svg>