<svg id="icone_lit" data-name="icone lit" xmlns="http://www.w3.org/2000/svg" width="56" height="56" viewBox="0 0 56 56">
  <path id="Tracé_2155" data-name="Tracé 2155" d="M28,0A28,28,0,1,1,0,28,28,28,0,0,1,28,0Z" fill="#134dbf"/>
  <path id="Tracé_14" data-name="Tracé 14" d="M196.581,194.269l1,.985c.126-.043.311-.111.5-.169a1.563,1.563,0,0,1,2.09.7c1.162,1.727,2.319,3.458,3.517,5.165a1.154,1.154,0,0,1-.405,1.834c-.42.282-.428.419-.1.817.658.8,1.126,1.727,1.779,2.532a1.852,1.852,0,0,0,1.206.62q3.652.087,7.308,0a2.506,2.506,0,0,0,1.419-.56c1.464-1.233,2.871-2.521,4.277-3.808a3.114,3.114,0,0,1,2.254-.858q6.807.039,13.614,0c1.565-.012,2.14.491,2.218,2.029.072,1.416.012,2.837.017,4.256a1.372,1.372,0,0,1-.988,1.487c-.637.208-.511.692-.463,1.1.1.8-.252,1.027-1.132,1.016-3.41-.041-6.822-.032-10.232,0a2.213,2.213,0,0,0-1.261.45c-.778.631-1.466,1.352-2.384,2.221.588.03.9.059,1.206.059,3.655,0,7.315.1,10.963-.043,1.6-.063,2.443.735,3.474,1.5,1.008.746.837,1.718.79,2.67-.009.171-.314.425-.528.471a6.539,6.539,0,0,1-1.244.021c.389.916.669,1.748-.36,2.339a1.8,1.8,0,0,1-1.949-.014c-.826-.538-.86-1.254-.314-2.093H194c.432.775.5,1.5-.325,2.061a1.77,1.77,0,0,1-1.947.074c-1-.577-.679-1.445-.459-2.247a.9.9,0,0,0-.18-.094c-.517-.116-1.48-.224-1.481-.342-.01-.821-.321-1.64.431-2.465a5.389,5.389,0,0,1,5.055-1.855,26.346,26.346,0,0,0,3.152.021c-.694-1.027-1.254-1.875-1.835-2.71-1.863-2.676-3.719-5.355-5.607-8.016-.713-1-1.509-1.956-2.267-2.932v-.327c.925-.324,1.685-.712,1.37-1.823-.172-.606.147-1.083.784-1.4.68-.337,1.336-.715,1.988-1.1.881-.515,1.748-1.051,2.622-1.578Zm32.126,13.822c1.735,0,3.471.006,5.208,0,1.134-.006,1.669-.487,1.673-1.475q.005-1.146,0-2.292c-.006-1.131-.509-1.6-1.74-1.6-3.838,0-7.676-.029-11.511.028a3.073,3.073,0,0,0-1.746.652c-1.567,1.293-3.055,2.664-4.54,4.033a2.476,2.476,0,0,1-1.841.7c-2.923-.033-5.848-.048-8.77.009a1.635,1.635,0,0,1-1.573-.854c-2.348-3.558-4.67-7.13-7.076-10.656-.57-.835-.956-.991-1.939-.455-.745.407-1.49.816-2.22,1.245-1.3.766-1.373,1.17-.521,2.362s1.668,2.374,2.482,3.572q3.089,4.544,6.156,9.1a2.005,2.005,0,0,0,1.808.875c4.354,0,8.71.026,13.065-.026a3.567,3.567,0,0,0,2.006-.6,41.1,41.1,0,0,0,3.54-3.239,3.6,3.6,0,0,1,3.065-1.406C225.712,208.189,227.215,208.091,228.707,208.091Zm-26.634-6.149.3-.132c.234-1.013-2.952-5.541-4.122-5.566Z" transform="translate(-184.538 -179.771)" fill="#fff"/>
</svg>
