<svg xmlns="http://www.w3.org/2000/svg" width="56" height="56" viewBox="0 0 56 56">
  <g id="icone_chaussure" data-name="icone chaussure" transform="translate(0.265)">
    <circle id="Ellipse_5" data-name="Ellipse 5" cx="28" cy="28" r="28" transform="translate(-0.265)" fill="#134dbf"/>
    <path id="Tracé_15" data-name="Tracé 15" d="M265.878,77.711c.185-.645.322-1.306.567-1.932.721-1.846,1.454-3.69,2.25-5.511a1.221,1.221,0,0,1,2.046-.256c1.01,1.015,1.97,2.071,3.028,3.044a7.16,7.16,0,0,0,7.058.894c.469-.232.606-.485.478-.965a4.653,4.653,0,0,1,2.119-4.994,1.316,1.316,0,0,1,1.843.314A6.841,6.841,0,0,1,286.1,69.5c.5,1.031,1.678,1.165,2.595,1.621,2.388,1.189,4.815,2.319,7.224,3.475,1.237.594,2.468,1.2,3.7,1.792,1.679.806,3.33,1.673,5.059,2.382a11.621,11.621,0,0,0,2.651.5c2.121.317,4.244.624,6.371.907a1.839,1.839,0,0,1,1.452.942,5.367,5.367,0,0,1,.993,2.941,3.466,3.466,0,0,1-1.859,3.078,19.878,19.878,0,0,1-8.012,3.014,25.671,25.671,0,0,1-3.465.3c-9.528.023-19.056.047-28.583-.013a17.471,17.471,0,0,1-6.432-.9c-.669-.267-1.283-.647-1.921-.975V86.607c.074-.055.2-.1.216-.167.253-1.1.841-2.169.293-3.342a12.3,12.3,0,0,1-.509-1.617ZM276.327,76.7a5.368,5.368,0,0,0,2.055,2.122c1.691,1.143,3.432,2.231,5.067,3.436,2.1,1.545,4.23,2.952,7.105,2.944.2,0,.465.035.585-.062,1.236-1,2.448-2.022,3.719-3.082-.208-.123-.29-.181-.38-.224-2.171-1.03-4.32-2.1-6.529-3.062-.7-.3-1.414-1.031-2.289-.591-1.3.655-2.123.115-2.928-.71-.312-.32-.673-.6-1-.907a1.34,1.34,0,0,0-1.255-.29C279.131,76.477,277.762,76.558,276.327,76.7Zm5.241,7.289.077-.19a2.82,2.82,0,0,0-.416-.434c-1.251-.859-2.473-1.759-3.78-2.542a7.234,7.234,0,0,1-3.79-4.932c-.078-.423-.362-.473-.6-.2a7.746,7.746,0,0,1-4.222,2.354c-.192.046-.486.264-.479.39q.118,2.2.345,4.4c.014.135.335.335.529.35,1.628.127,3.26.213,4.89.322,1.352.09,2.7.2,4.055.289C279.3,83.868,280.436,83.922,281.568,83.986Zm24.364,4.126-.01-.144a4.592,4.592,0,0,0-.637-.06c-.941.04-1.883.158-2.822.135-2.72-.067-5.447-.11-8.156-.314-2.164-.162-4.321-.483-6.456-.845a51.15,51.15,0,0,0-8.543-.951c-1.22,0-2.441-.092-3.658-.168-2.1-.131-4.194-.29-6.292-.411-.209-.012-.568.114-.622.25a6.124,6.124,0,0,0-.382,1.516c-.018.152.249.447.431.482a23.461,23.461,0,0,0,4.21.694c10.276.058,20.555.035,30.832.022A21.125,21.125,0,0,0,305.932,88.112ZM300,85.764l.111.245a2.462,2.462,0,0,0,.465.051c1.35-.091,2.7-.168,4.047-.295,2.495-.236,4.986-.5,7.478-.756,1.719-.172,2.249-.894,1.534-2.086a.619.619,0,0,0-.835-.342c-1.14.276-2.321.41-3.471.655-2.487.528-4.975,1.058-7.443,1.657A10.358,10.358,0,0,0,300,85.764Zm-5.664-.384.038.3,2.677.15a7.591,7.591,0,0,1,5.216-3.243c1.264-.266,1.246-.269,1.242-1.459a.708.708,0,0,0-.618-.822,4.264,4.264,0,0,1-1.006-.51.8.8,0,0,0-1.1.113c-.467.463-.983.886-1.492,1.314Q296.824,83.306,294.339,85.38ZM292.3,75.272l.1.2a5.354,5.354,0,0,1-1.321.907,2.275,2.275,0,0,1-1.584-.012.847.847,0,0,1-.105-1.378c.218-.242.391-.516.574-.762-.441-.424-.767-.375-1.111-.021a2.741,2.741,0,0,1-.9.766,2.026,2.026,0,0,1-1.366.064c-.293-.144-.358-.692-.479-1.072-.041-.132.056-.3.13-.639l-2.794,1.717c1.108,1.237,1.1,1.22,2.611.866a1.771,1.771,0,0,1,1.026.075c1.189.519,2.343,1.1,3.514,1.651q3.033,1.431,6.071,2.856l2.33-1.931c-.566-.583-.772-.046-1.039.156-.332.251-.6.571-.939.81a1.046,1.046,0,0,1-1.513-.256.988.988,0,0,1,.141-1.428c.2-.223.432-.427.644-.635-.634-.561-1.149-.516-1.633.073a4.3,4.3,0,0,1-.588.535,1.357,1.357,0,0,1-1.767.09,1.043,1.043,0,0,1,.15-1.591c.216-.21.436-.418.693-.664Zm-22.223-2.629-1.293,3.067.239.152a9.665,9.665,0,0,0,1.425-.8c1.159-.931,1.15-.93.136-1.889C270.437,73.029,270.3,72.877,270.078,72.643Zm13.7-2.173-.228,1.924C284.954,71.512,284.97,71.376,283.777,70.47Z" transform="translate(-263.102 -52.551)" fill="#fff"/>
  </g>
</svg>
