<svg id="Groupe_5" data-name="Groupe 5" xmlns="http://www.w3.org/2000/svg" width="56" height="56" viewBox="0 0 56 56">
  <path id="Tracé_2154" data-name="Tracé 2154" d="M28,0A28,28,0,1,1,0,28,28,28,0,0,1,28,0Z" fill="#134dbf"/>
  <g id="Groupe_4" data-name="Groupe 4" transform="translate(12.314 6.111)">
    <path id="Tracé_11" data-name="Tracé 11" d="M303.424,182.718c-.11.237-.205.488-.334.71a2.051,2.051,0,0,1-1.187.927c-.761.252-1.517.53-2.286.743a1.769,1.769,0,0,1-1.907-.3,4.451,4.451,0,0,1-.336-.373c-1.293-1.6-2.59-3.188-3.875-4.792q-1.594-1.991-3.166-4.011a.624.624,0,0,0-.775-.262c-2.525.841-5.047,1.695-7.584,2.476-1.174.361-2.051-.13-2.387-1.691-.911-4.23-1.846-8.451-2.75-12.684-.155-.726-.208-1.486-.3-2.23a1.825,1.825,0,0,1,2.021-2.009,2.017,2.017,0,0,1,1.47,1.724c.348,1.55.672,3.108,1,4.665.166.791.161.8.744.43q2.832-1.81,5.658-3.637a1.72,1.72,0,0,1,1.466-.153,1.753,1.753,0,0,1,1.178,1.587,2.466,2.466,0,0,1-.7,2.313,3.291,3.291,0,0,1-.418.318q-2.785,1.773-5.571,3.54c-.313.2-.616.423-.931.618a.519.519,0,0,0-.207.622c.092.418.2.831.278,1.252.073.393.223.486.544.378,2.234-.748,4.477-1.456,6.708-2.216a1.857,1.857,0,0,1,2.255.74c1.268,1.6,2.567,3.172,3.843,4.766,1.063,1.326,2.116,2.668,3.167,4.009a.581.581,0,0,0,.731.257,9.209,9.209,0,0,1,1.943-.464c.755-.079,1.373.533,1.619,1.431a1.154,1.154,0,0,0,.092.2Z" transform="translate(-271.966 -150.462)" fill="#fff"/>
    <path id="Tracé_12" data-name="Tracé 12" d="M278.77,150.462c.076.054.146.138.23.156a3.961,3.961,0,0,1,2.936,4.535,3.822,3.822,0,0,1-2.863,3.166,3.985,3.985,0,0,1-2.082-7.693,1.272,1.272,0,0,0,.267-.164Z" transform="translate(-271.966 -150.462)" fill="#fff"/>
    <path id="Tracé_13" data-name="Tracé 13" d="M289.967,174.3c.08.071.164.138.24.214,1.088,1.087,2.182,2.168,3.255,3.269a.956.956,0,0,1,.242.587,10.208,10.208,0,0,1-3.316,7.768,10.073,10.073,0,0,1-5.925,2.874,10.267,10.267,0,0,1-7-1.28,10.862,10.862,0,0,1-3.187-2.739,10.418,10.418,0,0,1-2.046-4.326,10.886,10.886,0,0,1,1.626-8.6,10.511,10.511,0,0,1,2.737-2.778c.1-.071.211-.13.38-.233.075.272.138.5.2.738.169.6.331,1.207.51,1.807a.56.56,0,0,1-.183.654,7.451,7.451,0,0,0-2.325,3.684,7.908,7.908,0,0,0,1.646,7.577,8,8,0,0,0,9.8,1.825,7.859,7.859,0,0,0,4.155-5.664,7.576,7.576,0,0,0-.609-4.814q-.127-.264-.257-.528Z" transform="translate(-271.966 -145.486)" fill="#fff"/>
  </g>
</svg>
