<svg xmlns="http://www.w3.org/2000/svg" width="21.022" height="21" viewBox="0 0 21.022 21">
  <path id="icone-shop" d="M20-18a2,2,0,0,0-1.99,2A2,2,0,0,0,20-14a2.006,2.006,0,0,0,2-2A2.006,2.006,0,0,0,20-18ZM14-34v2h2l3.6,7.59-1.35,2.44A2,2,0,0,0,20-19H32v-2H20s-1.037-1.5,1.1-2,7.45,0,7.45,0a1.991,1.991,0,0,0,1.75-1.03l3.58-6.49A1,1,0,0,0,33.01-32H18.21l-.94-2ZM30-18a2,2,0,0,0-1.99,2A2,2,0,0,0,30-14a2.006,2.006,0,0,0,2-2A2.006,2.006,0,0,0,30-18Z" transform="translate(-13.5 34.5)" fill="#fcfcfc" stroke="#02ad4e" stroke-width="1"/>
</svg>
