<svg xmlns="http://www.w3.org/2000/svg" width="10.821" height="24" viewBox="0 0 10.821 24">
  <g id="icone-info" transform="translate(-158.975 -185.341)">
    <path id="Tracé_2036" data-name="Tracé 2036" d="M161.976,280.16a1.683,1.683,0,0,1-1.286-1.912,16.965,16.965,0,0,1,.688-3.821c.416-1.844.862-3.681,1.277-5.525.147-.655.011-.772-.615-.55a10.042,10.042,0,0,0-2.212,1.051c-.278.184-.4.142-.562-.152-.411-.735-.433-.73.228-1.239a19.355,19.355,0,0,1,6.435-3.511c1.725-.494,2.332-.005,2.26,1.809a19.594,19.594,0,0,1-.813,3.85c-.41,1.678-.848,3.349-1.26,5.027-.088.36-.245.8.077,1.071s.674-.052.991-.173a6.16,6.16,0,0,0,1.7-.994c.243-.2.358-.161.532.076.516.7.527.7-.118,1.287a14.7,14.7,0,0,1-6.017,3.558c-.186.051-.4.011-.559.15Z" transform="translate(0 -70.819)" fill="#134dbf"/>
    <path id="icone-i" d="M210.845,185.341c1.543.508,2.146,1.376,1.958,2.815a3.226,3.226,0,0,1-2.913,2.614,2.241,2.241,0,0,1-2.552-1.36,3.1,3.1,0,0,1,1.117-3.46,5.45,5.45,0,0,1,1.414-.61Z" transform="translate(-43.126)" fill="#134dbf"/>
  </g>
</svg>
