<svg xmlns="http://www.w3.org/2000/svg" xmlns:xlink="http://www.w3.org/1999/xlink" width="26.424" height="47" viewBox="0 0 26.424 47">
  <defs>
    <clipPath id="clip-path">
      <path id="Tracé_996" data-name="Tracé 996" d="M0,0H26.424V47H0Z" transform="translate(1)" fill="#fff"/>
    </clipPath>
  </defs>
  <g id="icon-interrogation" transform="translate(-1)" clip-path="url(#clip-path)">
    <g id="question" transform="translate(1 3.465)">
      <path id="Tracé_2101" data-name="Tracé 2101" d="M105.587,0c6.931,0,13.755,3.192,13.755,10.827,0,7.041-8.068,9.749-9.8,12.293-1.3,1.892-.866,4.552-4.44,4.552a3.446,3.446,0,0,1-3.465-3.626c0-6.448,9.474-7.907,9.474-13.217,0-2.922-1.945-4.655-5.2-4.655-6.931,0-4.225,7.146-9.474,7.146a3.24,3.24,0,0,1-3.522-3.3C92.916,4.706,98.979,0,105.587,0Zm-.27,31.187a4.442,4.442,0,1,1-4.442,4.442A4.462,4.462,0,0,1,105.317,31.187Z" transform="translate(-92.917)" fill="#02ad4e"/>
    </g>
  </g>
</svg>
