<svg xmlns="http://www.w3.org/2000/svg" width="49.227" height="49.198" viewBox="0 0 49.227 49.198">
  <g id="icon-texte" transform="translate(0.316 1.414)">
    <g id="Rectangle_874" data-name="Rectangle 874" transform="translate(-0.316 7.784)" fill="none" stroke="#02ad4e" stroke-width="2">
      <rect width="41" height="40" stroke="none"/>
      <rect x="1" y="1" width="39" height="38" fill="none"/>
    </g>
    <g id="Groupe_1490" data-name="Groupe 1490" transform="translate(38.958 0) rotate(45)">
      <path id="Tracé_1257" data-name="Tracé 1257" d="M3.019,0H9.056a3.019,3.019,0,0,1,3.019,3.019V35.363L6.038,41.4,0,35.363V3.019A3.019,3.019,0,0,1,3.019,0Z" fill="#fff" stroke="#02ad4e" stroke-width="2"/>
      <line id="Ligne_17" data-name="Ligne 17" x2="11.213" transform="translate(0.863 34.501)" fill="none" stroke="#02ad4e" stroke-width="2"/>
      <line id="Ligne_20" data-name="Ligne 20" x2="11.213" transform="translate(0.863 7.361)" fill="none" stroke="#02ad4e" stroke-width="2"/>
    </g>
    <line id="Ligne_16" data-name="Ligne 16" x2="13.433" transform="translate(8.156 17.751)" fill="none" stroke="#02ad4e" stroke-width="2"/>
    <line id="Ligne_17-2" data-name="Ligne 17" x2="6.717" transform="translate(8.156 24.468)" fill="none" stroke="#02ad4e" stroke-width="2"/>
    <line id="Ligne_18" data-name="Ligne 18" x2="5.757" transform="translate(8.156 31.184)" fill="none" stroke="#02ad4e" stroke-width="2"/>
    <line id="Ligne_19" data-name="Ligne 19" x2="23.988" transform="translate(8.156 37.901)" fill="none" stroke="#02ad4e" stroke-width="2"/>
    <path id="Tracé_1295" data-name="Tracé 1295" d="M1,0H8.676" transform="translate(23.468 31.184)" fill="rgba(0,0,0,0)" stroke="#02ad4e" stroke-width="2"/>
  </g>
</svg>
