<?xml version="1.0" encoding="utf-8"?>
<!-- Generator: Adobe Illustrator 24.2.0, SVG Export Plug-In . SVG Version: 6.00 Build 0)  -->
<svg version="1.1" id="Calque_1" focusable="false" xmlns="http://www.w3.org/2000/svg" xmlns:xlink="http://www.w3.org/1999/xlink"
	 x="0px" y="0px" viewBox="0 0 510.2 510.2" style="enable-background:new 0 0 510.2 510.2;" xml:space="preserve">
<style type="text/css">
	.st0{fill:#134DBF;}
	.st1{fill:#FFFFFF;}
</style>
<circle class="st0" cx="255.1" cy="255.1" r="255.1"/>
<path class="st1" d="M179.2,402.1h-67.6V184.5h67.6V402.1z M145.4,154.8c-21.6,0-39.1-17.9-39.1-39.5c0-21.6,17.5-39.1,39.1-39.1
	c21.6,0,39.1,17.5,39.1,39.1C184.6,136.9,167,154.8,145.4,154.8z M432.2,402.1h-67.4v-106c0-25.3-0.5-57.6-35.1-57.6
	c-35.1,0-40.5,27.4-40.5,55.8v107.8h-67.5V184.5h64.8v29.7h0.9c9-17.1,31.1-35.1,63.9-35.1c68.4,0,81,45,81,103.5L432.2,402.1
	L432.2,402.1z"/>
</svg>
