<?xml version="1.0" encoding="utf-8"?>
<!-- Generator: Adobe Illustrator 24.2.0, SVG Export Plug-In . SVG Version: 6.00 Build 0)  -->
<svg version="1.1" id="Calque_1" xmlns="http://www.w3.org/2000/svg" xmlns:xlink="http://www.w3.org/1999/xlink" x="0px" y="0px"
	 viewBox="0 0 17 17" style="enable-background:new 0 0 17 17;" xml:space="preserve">
<style type="text/css">
	.st0{fill:#134DBF;}
	.st1{fill:#FFFFFF;}
</style>
<g id="Calque_2_1_">
	<g id="verso">
		<g id="droite">
			<g id="icone">
				<path class="st0" d="M17,8.5c0,4.7-3.8,8.5-8.5,8.5S0,13.2,0,8.5S3.8,0,8.5,0c0,0,0,0,0,0C13.2,0,17,3.8,17,8.5"/>
				<path class="st1" d="M8.5,2.1c-2.2,0-4.1,1.8-4.1,4.1c0,0.4,0.1,0.8,0.2,1.2c0,0.1,0.1,0.3,0.1,0.4v0.1l3.4,6.9
					c0.1,0.2,0.3,0.2,0.4,0.1c0.1,0,0.1-0.1,0.1-0.1l3.4-6.9l0.1-0.1c0.1-0.1,0.1-0.2,0.1-0.4c0.1-0.4,0.2-0.8,0.2-1.2
					C12.5,3.9,10.7,2.1,8.5,2.1 M8.5,8.1c-1,0-1.9-0.9-1.9-1.9c0-1,0.9-1.9,1.9-1.9c1,0,1.9,0.9,1.9,1.9l0,0
					C10.4,7.2,9.5,8.1,8.5,8.1"/>
			</g>
		</g>
	</g>
</g>
</svg>
