<svg xmlns="http://www.w3.org/2000/svg" viewBox="0 0 17.01 17.01"><defs><style>.cls-1{fill:#2b52a0;}.cls-2{fill:#fff;}</style></defs><g id="Calque_2" data-name="Calque 2"><g id="verso"><g id="droite"><g id="icone"><path class="cls-1" d="M17,8.5A8.51,8.51,0,1,1,8.5,0,8.51,8.51,0,0,1,17,8.5"/><path class="cls-2" d="M8.5,2.08A4.08,4.08,0,0,0,4.43,6.16a4,4,0,0,0,.2,1.2c0,.12.06.25.11.36l0,.11,3.44,6.93a.31.31,0,0,0,.55,0l3.43-6.93.06-.11c.05-.11.07-.24.11-.36a4,4,0,0,0,.2-1.2A4.08,4.08,0,0,0,8.5,2.08m0,6a1.9,1.9,0,1,1,1.9-1.9,1.9,1.9,0,0,1-1.9,1.9"/></g></g></g></g></svg>