<?xml version="1.0" encoding="utf-8"?>
<!-- Generator: Adobe Illustrator 24.2.0, SVG Export Plug-In . SVG Version: 6.00 Build 0)  -->
<svg version="1.1" id="Calque_1" xmlns="http://www.w3.org/2000/svg" xmlns:xlink="http://www.w3.org/1999/xlink" x="0px" y="0px"
	 viewBox="0 0 17 17" style="enable-background:new 0 0 17 17;" xml:space="preserve">
<style type="text/css">
	.st0{fill:#134DBF;}
	.st1{fill:#FFFFFF;}
</style>
<g id="Calque_2_1_">
	<g id="verso">
		<g id="droite">
			<g id="icone">
				<circle class="st0" cx="8.5" cy="8.5" r="8.5"/>
				<path class="st1" d="M8.6,4.6h5.8c0.1,0,0.1,0,0.1,0.1v7.5c0,0.1,0,0.1-0.1,0.1H2.8c-0.1,0-0.2,0-0.2-0.1V4.7
					c0-0.1,0-0.1,0.1-0.1H8.6z"/>
				<path class="st0" d="M4,5.3h9.1c0,0-0.1,0.1-0.1,0.1l-3,2.6L9,9C8.8,9.2,8.5,9.2,8.2,9L4,5.3L4,5.3"/>
				<path class="st0" d="M3.6,5.9L6.1,8l0.5,0.4c0,0,0.1,0.1,0,0.1l-3,2.6L3.6,5.9z"/>
				<path class="st0" d="M13.7,5.9v5.2c-0.3-0.2-0.5-0.4-0.8-0.6L11,8.7l-0.2-0.2c0,0,0-0.1,0-0.1c0,0,0.1-0.1,0.1-0.1L13.7,5.9"/>
				<path class="st0" d="M13.1,11.6H4.1l0.4-0.3L7,9c0.1-0.1,0.1-0.1,0.2,0c0.2,0.2,0.4,0.3,0.6,0.5c0.6,0.4,1.4,0.4,1.9-0.1
					C9.8,9.3,10,9.1,10.1,9c0,0,0.1,0,0.1,0c0,0,0,0,0,0L13.1,11.6"/>
			</g>
		</g>
	</g>
</g>
</svg>
