<svg xmlns="http://www.w3.org/2000/svg" viewBox="0 0 17.01 17.01"><defs><style>.cls-1{fill:#2b52a0;}.cls-2{fill:#fff;}</style></defs><g id="Calque_2" data-name="Calque 2"><g id="verso"><g id="droite"><g id="icone"><circle class="cls-1" cx="8.5" cy="8.5" r="8.5"/><path class="cls-2" d="M8.61,4.61h5.82c.11,0,.14,0,.14.12v7.54c0,.1,0,.13-.14.13H2.78c-.12,0-.15,0-.15-.13V4.73c0-.1,0-.12.14-.12Z"/><path class="cls-1" d="M4,5.33h9.14a.59.59,0,0,1-.08.08L10.11,8,9,9a.6.6,0,0,1-.77,0L4.06,5.37l0,0"/><path class="cls-1" d="M3.61,5.86,6.08,8l.47.41s.06.06,0,.11l-2.95,2.6Z"/><path class="cls-1" d="M13.7,5.92v5.16c-.25-.2-.51-.41-.76-.63L11,8.74l-.23-.21s0-.06,0-.09a1.31,1.31,0,0,0,.12-.11L13.7,5.92"/><path class="cls-1" d="M13.15,11.55H4.05l.38-.34L7,9c.08-.08.11-.06.18,0a5.43,5.43,0,0,0,.57.49,1.55,1.55,0,0,0,1.9-.1c.15-.14.31-.26.45-.4a.09.09,0,0,1,.14,0l2.93,2.6"/></g></g></g></g></svg>