<svg xmlns="http://www.w3.org/2000/svg" viewBox="0 0 17.01 17.01"><defs><style>.cls-1{fill:#2b52a0;}.cls-2{fill:#fff;}</style></defs><g id="Calque_2" data-name="Calque 2"><g id="verso"><g id="droite"><g id="icone"><circle class="cls-1" cx="8.5" cy="8.5" r="8.5"/><path class="cls-2" d="M15.18,8.51A6.68,6.68,0,1,1,8.51,1.78a6.69,6.69,0,0,1,6.67,6.73"/><path class="cls-1" d="M13.23,8.8h1c.07,0,.08,0,.08.08a6,6,0,0,1-1,3c-.05.08-.09.09-.17,0a7.53,7.53,0,0,0-1.38-.72c-.06,0-.07,0,0-.12a7.93,7.93,0,0,0,.4-2.15c0-.09,0-.12.11-.12h1"/><path class="cls-1" d="M3.77,8.8h1c.08,0,.1,0,.11.1a8,8,0,0,0,.4,2.18c0,.06,0,.08,0,.1a8.41,8.41,0,0,0-1.42.75c-.05,0-.07,0-.11,0a5.88,5.88,0,0,1-1-2.49c0-.17,0-.34-.06-.5s0-.11.09-.11h1"/><path class="cls-1" d="M13.23,8.21h-1c-.06,0-.08,0-.08-.08a8.61,8.61,0,0,0-.39-2.2c0-.06,0-.08,0-.1a8.14,8.14,0,0,0,1.4-.74c.06,0,.08,0,.11,0a5.89,5.89,0,0,1,1,2.23,6.93,6.93,0,0,1,.1.78c0,.07,0,.08-.08.08h-1"/><path class="cls-1" d="M3.78,8.21h-1c-.14,0-.14,0-.13-.14a5.82,5.82,0,0,1,1-2.93c0-.06.07-.09.14,0a7.91,7.91,0,0,0,1.35.71c.09,0,.1.07.07.16a8.58,8.58,0,0,0-.38,2.14c0,.08,0,.11-.1.1h-1"/><path class="cls-1" d="M10.16,8.21H8.89c-.07,0-.1,0-.1-.09q0-.78,0-1.56c0-.07,0-.09.09-.1a8,8,0,0,0,2.17-.37c.1,0,.12,0,.15.08a8.16,8.16,0,0,1,.34,1.89c0,.15,0,.15-.14.15Z"/><path class="cls-1" d="M6.84,8.21H5.57c-.08,0-.11,0-.1-.09a8.39,8.39,0,0,1,.35-2c0-.07,0-.07.11,0a7.88,7.88,0,0,0,2.2.38c.07,0,.09,0,.08.1,0,.52,0,1,0,1.57,0,.07,0,.08-.09.08H6.84"/><path class="cls-1" d="M10.18,8.8h1.27c.07,0,.09,0,.09.09a8.26,8.26,0,0,1-.37,2c0,.07-.05.09-.11.06a8.67,8.67,0,0,0-2.19-.38c-.07,0-.08,0-.08-.08,0-.53,0-1.06,0-1.58,0-.09,0-.08.1-.08h1.29"/><path class="cls-1" d="M6.84,8.8H8.11c.09,0,.11,0,.11.11,0,.51,0,1,0,1.54,0,.08,0,.1-.1.1A8.3,8.3,0,0,0,6,10.92c-.08,0-.11,0-.14-.07A8.7,8.7,0,0,1,5.47,8.9c0-.09,0-.11.1-.11H6.84"/><path class="cls-1" d="M8.79,4.25c0-.5,0-1,0-1.49,0,0,0-.12,0-.13A.18.18,0,0,1,9,2.68c.2.19.39.38.57.58a7.91,7.91,0,0,1,1.36,2.15c0,.08,0,.1-.06.13a8.67,8.67,0,0,1-2,.35c-.1,0-.11,0-.11-.11,0-.51,0-1,0-1.53"/><path class="cls-1" d="M8.21,4.27c0,.5,0,1,0,1.51,0,.1,0,.11-.11.1a8.21,8.21,0,0,1-2-.34c-.08,0-.09,0-.06-.13A7.75,7.75,0,0,1,8,2.68s0,0,.07-.05.12,0,.12.1V4.27"/><path class="cls-1" d="M8.79,12.75c0-.51,0-1,0-1.53,0-.08,0-.1.11-.1a8.24,8.24,0,0,1,2,.35c.06,0,.08,0,.05.1a7.94,7.94,0,0,1-2,2.76s-.07.07-.11.05,0-.08,0-.11c0-.51,0-1,0-1.52"/><path class="cls-1" d="M8.21,12.76v1.52s0,.08,0,.1-.07,0-.1,0a7.84,7.84,0,0,1-2-2.77c0-.07,0-.08.05-.1a7.92,7.92,0,0,1,2-.35c.08,0,.07,0,.07.09v1.55"/><path class="cls-1" d="M7.13,14.23A5.94,5.94,0,0,1,4.2,12.5c-.06-.07-.06-.1,0-.15a8.9,8.9,0,0,1,1.23-.63s.08,0,.1,0a8.32,8.32,0,0,0,1.56,2.41s0,0,0,.06"/><path class="cls-1" d="M9.85,14.23a9.76,9.76,0,0,0,.91-1.15,10.78,10.78,0,0,0,.69-1.3s0-.1.1-.06a7.51,7.51,0,0,1,1.26.65s.06.05,0,.1a5.8,5.8,0,0,1-3,1.76"/><path class="cls-1" d="M7.07,2.8l-.42.51a8.22,8.22,0,0,0-1.11,1.9c0,.09-.06.09-.14.06A8.44,8.44,0,0,1,4.14,4.6,5.77,5.77,0,0,1,7.07,2.8"/><path class="cls-1" d="M9.94,2.8a5.84,5.84,0,0,1,2.88,1.74s0,.06,0,.1a9,9,0,0,1-1.23.64s-.07,0-.1,0A8.53,8.53,0,0,0,10,2.82v0"/></g></g></g></g></svg>