<?xml version="1.0" encoding="utf-8"?>
<!-- Generator: Adobe Illustrator 24.2.0, SVG Export Plug-In . SVG Version: 6.00 Build 0)  -->
<svg version="1.1" id="Calque_1" xmlns="http://www.w3.org/2000/svg" xmlns:xlink="http://www.w3.org/1999/xlink" x="0px" y="0px"
	 viewBox="0 0 17 17" style="enable-background:new 0 0 17 17;" xml:space="preserve">
<style type="text/css">
	.st0{fill:#134DBF;}
	.st1{fill:#FDFDFD;}
</style>
<g id="Calque_2_1_">
	<g id="verso">
		<g id="droite">
			<g id="icone">
				<circle class="st0" cx="8.5" cy="8.5" r="8.5"/>
				<path class="st1" d="M12.2,13.2c-0.3,0-0.7-0.1-1-0.2c-0.9-0.2-1.7-0.6-2.5-1c-0.7-0.4-1.3-0.8-1.9-1.3c-0.5-0.4-1-0.9-1.5-1.4
					C4.5,8.5,3.9,7.6,3.4,6.6C3.3,6.4,3.2,6.2,3.1,5.9c0,0,0,0,0-0.1c0-0.1,0-0.2,0-0.3c0-0.4,0.1-0.8,0.2-1.1
					c0.2-0.4,0.5-0.7,0.8-1C4.5,3.1,5,2.8,5.5,2.7c0.1,0,0.3,0,0.3,0.2C5.9,3.1,6,3.3,6.1,3.5c0.2,0.7,0.5,1.3,0.7,2
					c0,0.1,0.1,0.2,0.1,0.3C6.9,5.9,6.8,6,6.7,6C6.5,6.1,6.3,6.2,6,6.3C5.9,6.4,5.8,6.4,5.7,6.5c-0.1,0.1-0.1,0.2,0,0.3
					C6,7.1,6.3,7.3,6.5,7.5l1.3,1l1.3,1.1c0.4,0.3,0.8,0.6,1.2,1c0.1,0.1,0.2,0.1,0.3,0.2c0.1,0.1,0.2,0.1,0.3,0c0,0,0-0.1,0-0.1
					c0-0.1,0-0.2,0-0.3c0-0.1,0-0.2,0.1-0.4c0-0.1,0.1-0.2,0.2-0.2L12,9.7l0.8-0.1l0.7-0.1h0.6c0.3,0,0.3,0.1,0.4,0.3
					c0.1,0.6,0,1.1-0.1,1.6c-0.1,0.3-0.2,0.5-0.4,0.7c-0.2,0.3-0.5,0.6-0.8,0.8C12.8,13.2,12.5,13.3,12.2,13.2"/>
			</g>
		</g>
	</g>
</g>
</svg>
