<svg xmlns="http://www.w3.org/2000/svg" viewBox="0 0 17.01 17.01"><defs><style>.cls-1{fill:#2b52a0;}.cls-2{fill:#fdfdfd;}</style></defs><g id="Calque_2" data-name="Calque 2"><g id="verso"><g id="droite"><g id="icone"><circle class="cls-1" cx="8.5" cy="8.5" r="8.5"/><path class="cls-2" d="M12.22,13.2a2.72,2.72,0,0,1-1-.17,12.68,12.68,0,0,1-2.5-1,12.25,12.25,0,0,1-1.93-1.25,11,11,0,0,1-1.5-1.39A12.59,12.59,0,0,1,3.39,6.6c-.11-.22-.22-.44-.32-.66a.14.14,0,0,1,0-.06c0-.11,0-.21,0-.31a2.41,2.41,0,0,1,.24-1.09,3.55,3.55,0,0,1,.78-1,3.61,3.61,0,0,1,1.4-.79.27.27,0,0,1,.34.17c.09.21.18.42.26.64.24.67.49,1.34.71,2a1.28,1.28,0,0,1,.07.28A.22.22,0,0,1,6.72,6c-.22.12-.44.21-.67.31a1.32,1.32,0,0,0-.32.2c-.12.11-.12.18,0,.29.26.25.54.48.82.71l1.25,1L9.11,9.58c.4.33.81.65,1.22,1a3,3,0,0,0,.3.18.2.2,0,0,0,.32-.13,1.12,1.12,0,0,0,0-.32,1.61,1.61,0,0,1,.07-.37.25.25,0,0,1,.21-.16l.78-.08.79-.07.67-.05.63,0c.29,0,.34.15.38.34a3.06,3.06,0,0,1-.15,1.64,2.54,2.54,0,0,1-.43.7,3.48,3.48,0,0,1-.81.77,1.33,1.33,0,0,1-.91.25"/></g></g></g></g></svg>